{
.formatVersion = 3;
date = "2010-01-24 04:27:14 +0000";
familyName = Allerta;
fontMaster = (
{
customParameters = (
{
name = typoAscender;
value = 1057;
},
{
name = typoDescender;
value = -252;
},
{
name = typoLineGap;
value = 0;
},
{
name = winAscent;
value = 1057;
},
{
name = winDescent;
value = 252;
},
{
name = hheaAscender;
value = 1057;
},
{
name = hheaDescender;
value = -252;
},
{
name = hheaLineGap;
value = 0;
}
);
id = "97546b08-5fa5-44df-a2da-6469103e6233";
metricValues = (
{
},
{
pos = -51;
},
{
pos = 51;
},
{
pos = 768;
},
{
pos = -256;
},
{
pos = 717;
},
{
pos = 666;
},
{
},
{
pos = 143;
},
{
pos = 717;
},
{
pos = 666;
},
{
},
{
pos = 488;
},
{
pos = 51;
},
{
pos = 256;
}
);
name = Regular;
visible = 1;
}
);
glyphs = (
{
category = Letter;
glyphname = exclam;
layers = (
{
layerId = "97546b08-5fa5-44df-a2da-6469103e6233";
name = Fore;
shapes = (
{
closed = 1;
nodes = (
(101,204,l),
(85,737,l),
(207,737,l),
(190,204,l)
);
},
{
closed = 1;
nodes = (
(218,38,o),
(197,17,q),
(176,-4,o),
(146,-4,q),
(116,-4,o),
(95.5,17,q),
(75,38,o),
(75,68,q),
(75,98,o),
(96,118.5,q),
(117,139,o),
(146,139,q),
(176,139,o),
(197,118.5,q),
(218,98,o),
(218,68,q)
);
}
);
width = 292;
}
);
unicode = 33;
},
{
category = Letter;
glyphname = quotedbl;
layers = (
{
layerId = "97546b08-5fa5-44df-a2da-6469103e6233";
name = Fore;
shapes = (
{
closed = 1;
nodes = (
(98,564,l),
(82,737,l),
(183,737,l),
(167,564,l)
);
},
{
closed = 1;
nodes = (
(283,564,l),
(266,737,l),
(368,737,l),
(351,564,l)
);
}
);
width = 449;
}
);
unicode = 34;
},
{
category = Letter;
glyphname = dollar;
layers = (
{
layerId = "97546b08-5fa5-44df-a2da-6469103e6233";
name = Fore;
shapes = (
{
closed = 1;
nodes = (
(200,507,o),
(223,482.5,q),
(246,458,o),
(280,439.5,q),
(314,421,o),
(354,403.5,q),
(394,386,o),
(428.5,361,q),
(463,336,o),
(486,298.5,q),
(509,261,o),
(509,202,q),
(509,167,o),
(496.5,134,q),
(484,101,o),
(460.5,74,q),
(437,47,o),
(404,27.5,q),
(371,8,o),
(328,1,q),
(328,-97,l),
(247,-97,l),
(247,-3,l),
(204,-1,o),
(158,11,q),
(112,23,o),
(81,49,q),
(102,135,l),
(116,127,o),
(137.5,119.5,q),
(159,112,o),
(182,105.5,q),
(205,99,o),
(228,95,q),
(251,91,o),
(271,91,q),
(332,91,o),
(364.5,119.5,q),
(397,148,o),
(397,204,q),
(397,238,o),
(374,262,q),
(351,286,o),
(316.5,305.5,q),
(282,325,o),
(242,344.5,q),
(202,364,o),
(167,390.5,q),
(132,417,o),
(109,453,q),
(86,489,o),
(86,543,q),
(86,584,o),
(99.5,618,q),
(113,652,o),
(136,677.5,q),
(159,703,o),
(190.5,719.5,q),
(222,736,o),
(258,743,q),
(258,829,l),
(339,829,l),
(339,748,l),
(378,746,o),
(416,737.5,q),
(454,729,o),
(478,713,q),
(472,700,o),
(464,684.5,q),
(456,669,o),
(449,655.5,q),
(442,642,o),
(437,633,q),
(432,624,o),
(431,623,q),
(425,626,o),
(417.5,631,q),
(410,636,o),
(396,641,q),
(382,646,o),
(359,648,q),
(336,650,o),
(300,647,q),
(280,645,o),
(262,635.5,q),
(244,626,o),
(230,612,q),
(216,598,o),
(208,580.5,q),
(200,563,o),
(200,547,q)
);
}
);
width = 542;
}
);
unicode = 36;
},
{
category = Letter;
glyphname = percent;
layers = (
{
layerId = "97546b08-5fa5-44df-a2da-6469103e6233";
name = Fore;
shapes = (
{
closed = 1;
nodes = (
(214,741,o),
(237,730,q),
(260,719,o),
(277.5,699.5,q),
(295,680,o),
(305,653.5,q),
(315,627,o),
(315,595,q),
(315,563,o),
(305,536.5,q),
(295,510,o),
(277.5,490,q),
(260,470,o),
(237,458.5,q),
(214,447,o),
(188,447,q),
(162,447,o),
(139.5,458.5,q),
(117,470,o),
(99,490,q),
(81,510,o),
(70.5,536.5,q),
(60,563,o),
(60,595,q),
(60,627,o),
(70.5,653.5,q),
(81,680,o),
(99,699.5,q),
(117,719,o),
(139.5,730,q),
(162,741,o),
(188,741,q)
);
},
{
closed = 1;
nodes = (
(215,509,o),
(234,531.5,q),
(253,554,o),
(253,595,q),
(253,635,o),
(234,657.5,q),
(215,680,o),
(188,680,q),
(161,680,o),
(142.5,657.5,q),
(124,635,o),
(124,595,q),
(124,554,o),
(142.5,531.5,q),
(161,509,o),
(188,509,q)
);
},
{
closed = 1;
nodes = (
(633,290,o),
(656,278.5,q),
(679,267,o),
(696.5,247.5,q),
(714,228,o),
(724,201.5,q),
(734,175,o),
(734,143,q),
(734,111,o),
(724,84.5,q),
(714,58,o),
(696.5,38,q),
(679,18,o),
(656,7,q),
(633,-4,o),
(607,-4,q),
(581,-4,o),
(558.5,7,q),
(536,18,o),
(518,38,q),
(500,58,o),
(489.5,85,q),
(479,112,o),
(479,143,q),
(479,175,o),
(489.5,201.5,q),
(500,228,o),
(518,247.5,q),
(536,267,o),
(558.5,278.5,q),
(581,290,o),
(607,290,q)
);
},
{
closed = 1;
nodes = (
(634,57,o),
(653,79.5,q),
(672,102,o),
(672,143,q),
(672,183,o),
(653,205.5,q),
(634,228,o),
(607,228,q),
(580,228,o),
(561.5,205.5,q),
(543,183,o),
(543,143,q),
(543,102,o),
(561.5,79.5,q),
(580,57,o),
(607,57,q)
);
},
{
closed = 1;
nodes = (
(57,-1,l),
(641,737,l),
(742,737,l),
(159,-1,l)
);
}
);
width = 805;
}
);
unicode = 37;
},
{
category = Letter;
glyphname = ampersand;
layers = (
{
layerId = "97546b08-5fa5-44df-a2da-6469103e6233";
name = Fore;
shapes = (
{
closed = 1;
nodes = (
(459,86,l),
(427,43,o),
(375,18,q),
(323,-7,o),
(252,-7,q),
(220,-7,o),
(188.5,3,q),
(157,13,o),
(131,35,q),
(105,57,o),
(89,91.5,q),
(73,126,o),
(73,173,q),
(73,213,o),
(85,247,q),
(97,281,o),
(117,308.5,q),
(137,336,o),
(162.5,358.5,q),
(188,381,o),
(214,397,q),
(202,409,o),
(186,426.5,q),
(170,444,o),
(155.5,466,q),
(141,488,o),
(131.5,516,q),
(122,544,o),
(122,575,q),
(122,610,o),
(135,641,q),
(148,672,o),
(173,695,q),
(198,718,o),
(231,731,q),
(264,744,o),
(304,744,q),
(339,744,o),
(372.5,733.5,q),
(406,723,o),
(431.5,701.5,q),
(457,680,o),
(472,646.5,q),
(487,613,o),
(487,568,q),
(485,529,o),
(473,497.5,q),
(461,466,o),
(441.5,441,q),
(422,416,o),
(398.5,397.5,q),
(375,379,o),
(352,367,q),
(371,340,o),
(401,308,q),
(431,276,o),
(458,245,q),
(469,262,o),
(479,280.5,q),
(489,299,o),
(501,325,q),
(579,293,l),
(568,261,o),
(552,230,q),
(536,199,o),
(518,168,q),
(653,0,l),
(528,0,l)
);
},
{
closed = 1;
nodes = (
(289,647,o),
(273.5,642,q),
(258,637,o),
(245.5,627,q),
(233,617,o),
(226,604,q),
(219,591,o),
(219,575,q),
(219,549,o),
(228,528,q),
(237,507,o),
(249,490,q),
(261,473,o),
(274,459.5,q),
(287,446,o),
(295,437,q),
(344,457,o),
(369,493.5,q),
(394,530,o),
(394,566,q),
(394,606,o),
(368,626.5,q),
(342,647,o),
(304,647,q)
);
},
{
closed = 1;
nodes = (
(293,80,o),
(315,88,q),
(337,96,o),
(354,108,q),
(371,120,o),
(383,133.5,q),
(395,147,o),
(404,159,q),
(371,200,o),
(333,242.5,q),
(295,285,o),
(269,321,q),
(217,288,o),
(193.5,248.5,q),
(170,209,o),
(170,173,q),
(170,162,o),
(174.5,146,q),
(179,130,o),
(190,115.5,q),
(201,101,o),
(218,90.5,q),
(235,80,o),
(262,80,q)
);
}
);
width = 705;
}
);
unicode = 38;
},
{
category = Letter;
glyphname = quotesingle;
layers = (
{
layerId = "97546b08-5fa5-44df-a2da-6469103e6233";
name = Fore;
shapes = (
{
closed = 1;
nodes = (
(91,564,l),
(75,737,l),
(176,737,l),
(160,564,l)
);
}
);
width = 250;
}
);
unicode = 39;
},
{
category = Letter;
glyphname = parenleft;
layers = (
{
layerId = "97546b08-5fa5-44df-a2da-6469103e6233";
name = Fore;
shapes = (
{
closed = 1;
nodes = (
(149,-33,o),
(129,15,q),
(109,63,o),
(93.5,121.5,q),
(78,180,o),
(68,243,q),
(58,306,o),
(58,361,q),
(58,413,o),
(67,472,q),
(76,531,o),
(89.5,586.5,q),
(103,642,o),
(121.5,687,q),
(140,732,o),
(159,757,q),
(222,757,l),
(214,746,o),
(200.5,712.5,q),
(187,679,o),
(174.5,626,q),
(162,573,o),
(151.5,501.5,q),
(141,430,o),
(140,341,q),
(139,263,o),
(151,195,q),
(163,127,o),
(180,74.5,q),
(197,22,o),
(213.5,-13.5,q),
(230,-49,o),
(240,-61,q),
(171,-61,l)
);
}
);
width = 294;
}
);
unicode = 40;
},
{
category = Letter;
glyphname = parenright;
layers = (
{
layerId = "97546b08-5fa5-44df-a2da-6469103e6233";
name = Fore;
shapes = (
{
closed = 1;
nodes = (
(63,-49,o),
(80,-13.5,q),
(97,22,o),
(114,74.5,q),
(131,127,o),
(143,195,q),
(155,263,o),
(154,341,q),
(153,430,o),
(142.5,501.5,q),
(132,573,o),
(119,626,q),
(106,679,o),
(92.5,712,q),
(79,745,o),
(72,757,q),
(135,757,l),
(153,732,o),
(171.5,687,q),
(190,642,o),
(204,586.5,q),
(218,531,o),
(227,472.5,q),
(236,414,o),
(236,361,q),
(236,306,o),
(226,243,q),
(216,180,o),
(200.5,121.5,q),
(185,63,o),
(164.5,14.5,q),
(144,-34,o),
(123,-61,q),
(54,-61,l)
);
}
);
width = 293;
}
);
unicode = 41;
},
{
category = Letter;
glyphname = asterisk;
layers = (
{
layerId = "97546b08-5fa5-44df-a2da-6469103e6233";
name = Fore;
shapes = (
{
closed = 1;
nodes = (
(270,527,l),
(315,404,l),
(242,385,l),
(220,513,l),
(137,413,l),
(84,466,l),
(184,550,l),
(55,571,l),
(76,645,l),
(198,599,l),
(153,721,l),
(226,741,l),
(248,613,l),
(331,714,l),
(384,659,l),
(284,577,l),
(413,555,l),
(392,481,l)
);
}
);
width = 467;
}
);
unicode = 42;
},
{
category = Letter;
glyphname = plus;
layers = (
{
layerId = "97546b08-5fa5-44df-a2da-6469103e6233";
name = Fore;
shapes = (
{
closed = 1;
nodes = (
(375,231,l),
(375,0,l),
(273,0,l),
(273,231,l),
(42,231,l),
(42,333,l),
(273,333,l),
(273,564,l),
(375,564,l),
(375,333,l),
(606,333,l),
(606,231,l)
);
}
);
width = 648;
}
);
unicode = 43;
},
{
category = Letter;
glyphname = comma;
layers = (
{
layerId = "97546b08-5fa5-44df-a2da-6469103e6233";
name = Fore;
shapes = (
{
closed = 1;
nodes = (
(166,139,o),
(187,118,q),
(208,97,o),
(208,68,q),
(208,63,o),
(207,44.5,q),
(206,26,o),
(197.5,-0.5,q),
(189,-27,o),
(170,-58,q),
(151,-89,o),
(114,-120,q),
(67,-120,l),
(87,-101,o),
(100,-80,q),
(113,-59,o),
(121,-42,q),
(130,-23,o),
(136,-4,q),
(106,-4,o),
(85.5,17,q),
(65,38,o),
(65,68,q),
(65,98,o),
(85.5,118.5,q),
(106,139,o),
(136,139,q)
);
}
);
width = 270;
}
);
unicode = 44;
},
{
category = Letter;
glyphname = hyphen;
layers = (
{
layerId = "97546b08-5fa5-44df-a2da-6469103e6233";
name = Fore;
shapes = (
{
closed = 1;
nodes = (
(404,242,l),
(86,242,l),
(86,343,l),
(404,343,l)
);
}
);
width = 489;
}
);
unicode = 45;
},
{
category = Letter;
glyphname = period;
layers = (
{
layerId = "97546b08-5fa5-44df-a2da-6469103e6233";
name = Fore;
shapes = (
{
closed = 1;
nodes = (
(176,38,o),
(155,17,q),
(134,-4,o),
(104,-4,q),
(74,-4,o),
(53.5,17,q),
(33,38,o),
(33,68,q),
(33,98,o),
(54,118.5,q),
(75,139,o),
(104,139,q),
(134,139,o),
(155,118.5,q),
(176,98,o),
(176,68,q)
);
}
);
width = 207;
}
);
unicode = 46;
},
{
category = Letter;
glyphname = slash;
layers = (
{
layerId = "97546b08-5fa5-44df-a2da-6469103e6233";
name = Fore;
shapes = (
{
closed = 1;
nodes = (
(34,-22,l),
(341,799,l),
(422,799,l),
(115,-22,l)
);
}
);
width = 454;
}
);
unicode = 47;
},
{
category = Letter;
glyphname = zero;
layers = (
{
layerId = "97546b08-5fa5-44df-a2da-6469103e6233";
name = Fore;
shapes = (
{
closed = 1;
nodes = (
(422,749,o),
(474,724.5,q),
(526,700,o),
(563,653,q),
(600,606,o),
(619.5,535.5,q),
(639,465,o),
(639,372,q),
(639,279,o),
(619.5,208,q),
(600,137,o),
(563,90,q),
(526,43,o),
(474,19,q),
(422,-5,o),
(356,-5,q),
(290,-5,o),
(238,19,q),
(186,43,o),
(149.5,90,q),
(113,137,o),
(93.5,208,q),
(74,279,o),
(74,372,q),
(74,465,o),
(93.5,535.5,q),
(113,606,o),
(149.5,653,q),
(186,700,o),
(238,724.5,q),
(290,749,o),
(356,749,q)
);
},
{
closed = 1;
nodes = (
(322,650,o),
(292,636,q),
(262,622,o),
(241,588.5,q),
(220,555,o),
(208.5,502,q),
(197,449,o),
(196,372,q),
(197,311,o),
(204,264,q),
(211,217,o),
(225,184,q),
(433,629,l),
(400,650,o),
(359,650,q)
);
},
{
closed = 1;
nodes = (
(390,93,o),
(420.5,107.5,q),
(451,122,o),
(472,155,q),
(493,188,o),
(504.5,241.5,q),
(516,295,o),
(517,372,q),
(516,497,o),
(484,564,q),
(275,118,l),
(306,93,o),
(353,93,q)
);
}
);
width = 712;
}
);
unicode = 48;
},
{
category = Letter;
glyphname = one;
layers = (
{
layerId = "97546b08-5fa5-44df-a2da-6469103e6233";
name = Fore;
shapes = (
{
closed = 1;
nodes = (
(216,0,l),
(216,565,l),
(115,464,l),
(29,550,l),
(216,737,l),
(338,737,l),
(338,0,l)
);
}
);
width = 422;
}
);
unicode = 49;
},
{
category = Letter;
glyphname = two;
layers = (
{
layerId = "97546b08-5fa5-44df-a2da-6469103e6233";
name = Fore;
shapes = (
{
closed = 1;
nodes = (
(534,479,o),
(517,437.5,q),
(500,396,o),
(472,355.5,q),
(444,315,o),
(410.5,277,q),
(377,239,o),
(343.5,205,q),
(310,171,o),
(280.5,143.5,q),
(251,116,o),
(232,97,q),
(545,97,l),
(545,0,l),
(87,0,l),
(87,112,l),
(105,128,o),
(137,155.5,q),
(169,183,o),
(206,217,q),
(243,251,o),
(280,289.5,q),
(317,328,o),
(347.5,367.5,q),
(378,407,o),
(397.5,445,q),
(417,483,o),
(417,517,q),
(417,552,o),
(404.5,575.5,q),
(392,599,o),
(373,614,q),
(354,629,o),
(331.5,635,q),
(309,641,o),
(289,641,q),
(250,641,o),
(224.5,638.5,q),
(199,636,o),
(180,631.5,q),
(161,627,o),
(146,619,q),
(131,611,o),
(114,601,q),
(79,675,l),
(97,691,o),
(123.5,704,q),
(150,717,o),
(178.5,725,q),
(207,733,o),
(235,737.5,q),
(263,742,o),
(287,742,q),
(352,742,o),
(398.5,721,q),
(445,700,o),
(475,667.5,q),
(505,635,o),
(519.5,595,q),
(534,555,o),
(534,518,q)
);
}
);
width = 614;
}
);
unicode = 50;
},
{
category = Letter;
glyphname = three;
layers = (
{
layerId = "97546b08-5fa5-44df-a2da-6469103e6233";
name = Fore;
shapes = (
{
closed = 1;
nodes = (
(390,385,o),
(414.5,373,q),
(439,361,o),
(460,339,q),
(481,317,o),
(495,285.5,q),
(509,254,o),
(509,213,q),
(509,163,o),
(494.5,126.5,q),
(480,90,o),
(458,66,q),
(436,42,o),
(408.5,27.5,q),
(381,13,o),
(355,6,q),
(329,-1,o),
(307.5,-3,q),
(286,-5,o),
(274,-5,q),
(190,-5,o),
(141.5,6.5,q),
(93,18,o),
(74,30,q),
(101,116,l),
(110,111,o),
(118,105,q),
(126,99,o),
(141,93.5,q),
(156,88,o),
(183,84.5,q),
(210,81,o),
(257,81,q),
(326,81,o),
(360,118.5,q),
(394,156,o),
(394,213,q),
(394,267,o),
(363,304,q),
(332,341,o),
(272,341,q),
(170,341,l),
(171,341,l),
(170,422,l),
(238,422,l),
(260,422,o),
(282.5,423,q),
(305,424,o),
(325,434,q),
(345,444,o),
(358,468,q),
(371,492,o),
(371,537,q),
(371,555,o),
(368,575,q),
(365,595,o),
(351.5,612,q),
(338,629,o),
(312,639.5,q),
(286,650,o),
(240,650,q),
(194,650,o),
(166.5,641.5,q),
(139,633,o),
(125,628,q),
(90,718,l),
(114,725,o),
(149.5,733,q),
(185,741,o),
(252,741,q),
(299,741,o),
(341,729.5,q),
(383,718,o),
(414.5,693,q),
(446,668,o),
(464.5,629,q),
(483,590,o),
(483,537,q),
(483,506,o),
(472,480.5,q),
(461,455,o),
(444,436,q),
(427,417,o),
(406,404.5,q),
(385,392,o),
(367,388,q)
);
}
);
width = 578;
}
);
unicode = 51;
},
{
category = Letter;
glyphname = four;
layers = (
{
layerId = "97546b08-5fa5-44df-a2da-6469103e6233";
name = Fore;
shapes = (
{
closed = 1;
nodes = (
(38,172,l),
(38,267,l),
(357,737,l),
(479,737,l),
(479,267,l),
(556,267,l),
(556,172,l),
(479,172,l),
(479,0,l),
(357,0,l),
(357,172,l)
);
},
{
closed = 1;
nodes = (
(357,597,l),
(145,267,l),
(357,267,l)
);
}
);
width = 621;
}
);
unicode = 52;
},
{
category = Letter;
glyphname = five;
layers = (
{
layerId = "97546b08-5fa5-44df-a2da-6469103e6233";
name = Fore;
shapes = (
{
closed = 1;
nodes = (
(203,565,o),
(197,524,q),
(191,483,o),
(188.5,463,q),
(186,443,o),
(185.5,438.5,q),
(185,434,o),
(185,433,q),
(192,440,o),
(208,445,q),
(224,450,o),
(242,453,q),
(260,456,o),
(277.5,457,q),
(295,458,o),
(305,458,q),
(357,458,o),
(398.5,439.5,q),
(440,421,o),
(469,390,q),
(498,359,o),
(513,320,q),
(528,281,o),
(528,239,q),
(528,157,o),
(501,108.5,q),
(474,60,o),
(434.5,34.5,q),
(395,9,o),
(352,2,q),
(309,-5,o),
(278,-5,q),
(244,-5,o),
(213,0.5,q),
(182,6,o),
(156.5,14.5,q),
(131,23,o),
(112,31.5,q),
(93,40,o),
(83,45,q),
(83,145,l),
(97,136,o),
(118.5,125.5,q),
(140,115,o),
(164,105.5,q),
(188,96,o),
(214.5,90,q),
(241,84,o),
(264,84,q),
(338,84,o),
(380,122,q),
(422,160,o),
(422,239,q),
(422,296,o),
(385.5,329,q),
(349,362,o),
(290,362,q),
(254,362,o),
(221,353.5,q),
(188,345,o),
(164,326,q),
(78,326,l),
(78,334,o),
(80,356,q),
(82,378,o),
(85,408.5,q),
(88,439,o),
(92,475,q),
(96,511,o),
(100,548,q),
(110,634,o),
(123,737,q),
(488,737,l),
(488,639,l),
(213,639,l)
);
}
);
width = 605;
}
);
unicode = 53;
},
{
category = Letter;
glyphname = six;
layers = (
{
layerId = "97546b08-5fa5-44df-a2da-6469103e6233";
name = Fore;
shapes = (
{
closed = 1;
nodes = (
(399,499,o),
(441.5,478,q),
(484,457,o),
(514,423,q),
(544,389,o),
(559.5,347,q),
(575,305,o),
(575,263,q),
(575,185,o),
(550,133.5,q),
(525,82,o),
(488,50.5,q),
(451,19,o),
(408,6.5,q),
(365,-6,o),
(329,-6,q),
(263,-6,o),
(215,16,q),
(167,38,o),
(135,78,q),
(103,118,o),
(88,172,q),
(73,226,o),
(73,291,q),
(73,423,o),
(97,510.5,q),
(121,598,o),
(159.5,649,q),
(198,700,o),
(245.5,721,q),
(293,742,o),
(340,742,q),
(396,742,o),
(445.5,735,q),
(495,728,o),
(530,705,q),
(492,622,l),
(464,640,o),
(430,644.5,q),
(396,649,o),
(351,649,q),
(310,649,o),
(280,631,q),
(250,613,o),
(230.5,583,q),
(211,553,o),
(201,514,q),
(191,475,o),
(191,433,q),
(192,434,o),
(195,434,q),
(198,434,o),
(199,435,q),
(212,462,o),
(253.5,480.5,q),
(295,499,o),
(347,499,q)
);
},
{
closed = 1;
nodes = (
(360,91,o),
(385.5,103.5,q),
(411,116,o),
(430,137.5,q),
(449,159,o),
(459.5,188.5,q),
(470,218,o),
(470,253,q),
(470,288,o),
(459.5,316.5,q),
(449,345,o),
(430,365.5,q),
(411,386,o),
(385,398,q),
(359,410,o),
(330,410,q),
(299,410,o),
(273,398,q),
(247,386,o),
(228,365.5,q),
(209,345,o),
(197.5,316.5,q),
(186,288,o),
(186,253,q),
(186,218,o),
(197.5,188.5,q),
(209,159,o),
(228,137.5,q),
(247,116,o),
(273,103.5,q),
(299,91,o),
(330,91,q)
);
}
);
width = 646;
}
);
unicode = 54;
},
{
category = Letter;
glyphname = seven;
layers = (
{
layerId = "97546b08-5fa5-44df-a2da-6469103e6233";
name = Fore;
shapes = (
{
closed = 1;
nodes = (
(384,639,l),
(63,639,l),
(63,737,l),
(526,737,l),
(240,0,l),
(128,0,l)
);
}
);
width = 569;
}
);
unicode = 55;
},
{
category = Letter;
glyphname = eight;
layers = (
{
layerId = "97546b08-5fa5-44df-a2da-6469103e6233";
name = Fore;
shapes = (
{
closed = 1;
nodes = (
(364,742,o),
(402,726.5,q),
(440,711,o),
(463.5,684.5,q),
(487,658,o),
(498,624,q),
(509,590,o),
(509,553,q),
(509,529,o),
(499.5,506.5,q),
(490,484,o),
(475,463,q),
(460,442,o),
(441,423,q),
(422,404,o),
(402,388,q),
(429,371,o),
(453.5,351.5,q),
(478,332,o),
(496.5,308.5,q),
(515,285,o),
(526,257,q),
(537,229,o),
(537,196,q),
(537,148,o),
(518.5,110,q),
(500,72,o),
(469,45.5,q),
(438,19,o),
(397,5,q),
(356,-9,o),
(310,-9,q),
(195,-9,o),
(133.5,44,q),
(72,97,o),
(72,191,q),
(72,265,o),
(106.5,315.5,q),
(141,366,o),
(197,391,q),
(154,422,o),
(124.5,460.5,q),
(95,499,o),
(95,551,q),
(95,597,o),
(112,633,q),
(129,669,o),
(158,693.5,q),
(187,718,o),
(226.5,730,q),
(266,742,o),
(310,742,q)
);
},
{
closed = 1;
nodes = (
(429,208,o),
(415,230,q),
(401,252,o),
(378.5,271.5,q),
(356,291,o),
(327.5,309,q),
(299,327,o),
(268,345,q),
(255,334,o),
(239.5,320,q),
(224,306,o),
(211,288,q),
(198,270,o),
(188.5,247,q),
(179,224,o),
(179,197,q),
(179,173,o),
(189,152.5,q),
(199,132,o),
(216.5,117,q),
(234,102,o),
(258.5,93.5,q),
(283,85,o),
(310,85,q),
(335,85,o),
(357,93,q),
(379,101,o),
(395,115,q),
(411,129,o),
(420,146.5,q),
(429,164,o),
(429,182,q)
);
},
{
closed = 1;
nodes = (
(198,532,o),
(209,516,q),
(220,500,o),
(239.5,485.5,q),
(259,471,o),
(284,456.5,q),
(309,442,o),
(337,427,q),
(363,449,o),
(385,479,q),
(407,509,o),
(407,551,q),
(407,580,o),
(399,598,q),
(391,616,o),
(378.5,627,q),
(366,638,o),
(348.5,642,q),
(331,646,o),
(311,646,q),
(262,646,o),
(230,622,q),
(198,598,o),
(198,549,q)
);
}
);
width = 607;
}
);
unicode = 56;
},
{
category = Letter;
glyphname = nine;
layers = (
{
layerId = "97546b08-5fa5-44df-a2da-6469103e6233";
name = Fore;
shapes = (
{
closed = 1;
nodes = (
(246,238,o),
(203.5,259,q),
(161,280,o),
(131,313.5,q),
(101,347,o),
(85.5,389,q),
(70,431,o),
(70,473,q),
(70,551,o),
(95,602.5,q),
(120,654,o),
(157.5,685.5,q),
(195,717,o),
(238,729.5,q),
(281,742,o),
(316,742,q),
(382,742,o),
(430,720,q),
(478,698,o),
(510,658,q),
(542,618,o),
(557,564,q),
(572,510,o),
(572,445,q),
(572,313,o),
(548,226,q),
(524,139,o),
(485.5,87.5,q),
(447,36,o),
(399.5,15.5,q),
(352,-5,o),
(305,-5,q),
(249,-5,o),
(200,2.5,q),
(151,10,o),
(115,34,q),
(154,117,l),
(182,99,o),
(215.5,94,q),
(249,89,o),
(294,89,q),
(335,89,o),
(365,107,q),
(395,125,o),
(414.5,154.5,q),
(434,184,o),
(444,222.5,q),
(454,261,o),
(454,303,q),
(453,302,o),
(450,302,q),
(447,302,o),
(446,301,q),
(433,274,o),
(391.5,256,q),
(350,238,o),
(298,238,q)
);
},
{
closed = 1;
nodes = (
(285,645,o),
(259.5,633,q),
(234,621,o),
(215.5,599.5,q),
(197,578,o),
(186,548,q),
(175,518,o),
(175,483,q),
(175,448,o),
(186,419.5,q),
(197,391,o),
(215.5,370,q),
(234,349,o),
(260,338,q),
(286,327,o),
(315,327,q),
(346,327,o),
(372,338,q),
(398,349,o),
(417,370,q),
(436,391,o),
(447.5,420,q),
(459,449,o),
(459,483,q),
(459,518,o),
(447.5,548,q),
(436,578,o),
(417,599.5,q),
(398,621,o),
(372,633,q),
(346,645,o),
(315,645,q)
);
}
);
width = 645;
}
);
unicode = 57;
},
{
category = Letter;
glyphname = colon;
layers = (
{
layerId = "97546b08-5fa5-44df-a2da-6469103e6233";
name = Fore;
shapes = (
{
closed = 1;
nodes = (
(220,468,o),
(199,447,q),
(178,426,o),
(148,426,q),
(118,426,o),
(97.5,447,q),
(77,468,o),
(77,498,q),
(77,528,o),
(98,548.5,q),
(119,569,o),
(148,569,q),
(178,569,o),
(199,548.5,q),
(220,528,o),
(220,498,q)
);
},
{
closed = 1;
nodes = (
(220,37,o),
(199,16,q),
(178,-5,o),
(148,-5,q),
(118,-5,o),
(97.5,16,q),
(77,37,o),
(77,67,q),
(77,97,o),
(98,117.5,q),
(119,138,o),
(148,138,q),
(178,138,o),
(199,117.5,q),
(220,97,o),
(220,67,q)
);
}
);
width = 294;
}
);
unicode = 58;
},
{
category = Letter;
glyphname = semicolon;
layers = (
{
layerId = "97546b08-5fa5-44df-a2da-6469103e6233";
name = Fore;
shapes = (
{
closed = 1;
nodes = (
(209,98,o),
(209,68,q),
(209,62,o),
(208,44,q),
(207,26,o),
(198.5,-0.5,q),
(190,-27,o),
(171,-58,q),
(152,-89,o),
(115,-120,q),
(68,-120,l),
(88,-100,o),
(101,-79.5,q),
(114,-59,o),
(122,-42,q),
(131,-22,o),
(137,-4,q),
(108,-4,o),
(87,17,q),
(66,38,o),
(66,68,q),
(66,97,o),
(86.5,118,q),
(107,139,o),
(137,139,q),
(167,139,o),
(188,118.5,q)
);
},
{
closed = 1;
nodes = (
(209,468,o),
(188,447,q),
(167,426,o),
(137,426,q),
(107,426,o),
(86.5,447,q),
(66,468,o),
(66,498,q),
(66,528,o),
(87,548.5,q),
(108,569,o),
(137,569,q),
(167,569,o),
(188,548.5,q),
(209,528,o),
(209,498,q)
);
}
);
width = 274;
}
);
unicode = 59;
},
{
category = Letter;
glyphname = less;
layers = (
{
layerId = "97546b08-5fa5-44df-a2da-6469103e6233";
name = Fore;
shapes = (
{
closed = 1;
nodes = (
(561,-6,l),
(29,254,l),
(29,322,l),
(561,579,l),
(561,489,l),
(123,288,l),
(561,84,l)
);
}
);
width = 645;
}
);
unicode = 60;
},
{
category = Letter;
glyphname = equal;
layers = (
{
layerId = "97546b08-5fa5-44df-a2da-6469103e6233";
name = Fore;
shapes = (
{
closed = 1;
nodes = (
(553,343,l),
(86,343,l),
(86,444,l),
(553,444,l)
);
},
{
closed = 1;
nodes = (
(553,140,l),
(86,140,l),
(86,242,l),
(553,242,l)
);
}
);
width = 638;
}
);
unicode = 61;
},
{
category = Letter;
glyphname = greater;
layers = (
{
layerId = "97546b08-5fa5-44df-a2da-6469103e6233";
name = Fore;
shapes = (
{
closed = 1;
nodes = (
(524,288,l),
(86,489,l),
(86,579,l),
(618,322,l),
(618,254,l),
(86,-6,l),
(86,84,l)
);
}
);
width = 647;
}
);
unicode = 62;
},
{
category = Letter;
glyphname = question;
layers = (
{
layerId = "97546b08-5fa5-44df-a2da-6469103e6233";
name = Fore;
shapes = (
{
closed = 1;
nodes = (
(150,203,l),
(150,262,o),
(164,299.5,q),
(178,337,o),
(200,362,q),
(222,387,o),
(247.5,404,q),
(273,421,o),
(295,439.5,q),
(317,458,o),
(331.5,482.5,q),
(346,507,o),
(346,547,q),
(346,563,o),
(338,580.5,q),
(330,598,o),
(316,612,q),
(302,626,o),
(283.5,635.5,q),
(265,645,o),
(246,647,q),
(210,650,o),
(187,648,q),
(164,646,o),
(150,641,q),
(136,636,o),
(128.5,631,q),
(121,626,o),
(115,623,q),
(114,624,o),
(108.5,633,q),
(103,642,o),
(96.5,655.5,q),
(90,669,o),
(82,684,q),
(74,699,o),
(68,713,q),
(98,732,o),
(144,740.5,q),
(190,749,o),
(237,749,q),
(281,749,o),
(321,735,q),
(361,721,o),
(392,694.5,q),
(423,668,o),
(441.5,630,q),
(460,592,o),
(460,543,q),
(460,490,o),
(443.5,454.5,q),
(427,419,o),
(403,394.5,q),
(379,370,o),
(350.5,352,q),
(322,334,o),
(297.5,314,q),
(273,294,o),
(257,268,q),
(241,242,o),
(241,203,q)
);
},
{
closed = 1;
nodes = (
(267,38,o),
(246,17,q),
(225,-4,o),
(196,-4,q),
(166,-4,o),
(145,17,q),
(124,38,o),
(124,68,q),
(124,98,o),
(145,118.5,q),
(166,139,o),
(196,139,q),
(226,139,o),
(246.5,118.5,q),
(267,98,o),
(267,68,q)
);
}
);
width = 507;
}
);
unicode = 63;
},
{
category = Letter;
glyphname = at;
layers = (
{
layerId = "97546b08-5fa5-44df-a2da-6469103e6233";
name = Fore;
shapes = (
{
closed = 1;
nodes = (
(658,799,o),
(739,760.5,q),
(820,722,o),
(874.5,658,q),
(929,594,o),
(956.5,511,q),
(984,428,o),
(984,338,q),
(984,275,o),
(968.5,223.5,q),
(953,172,o),
(924.5,136,q),
(896,100,o),
(855,80,q),
(814,60,o),
(763,60,q),
(746,60,o),
(724,65.5,q),
(702,71,o),
(682,80.5,q),
(662,90,o),
(644.5,103.5,q),
(627,117,o),
(620,134,q),
(610,134,l),
(608,124,o),
(597,113.5,q),
(586,103,o),
(568.5,95.5,q),
(551,88,o),
(529,83,q),
(507,78,o),
(483,78,q),
(440,78,o),
(408,97,q),
(376,116,o),
(354.5,147.5,q),
(333,179,o),
(322,220.5,q),
(311,262,o),
(311,307,q),
(311,367,o),
(328,409.5,q),
(345,452,o),
(371,477.5,q),
(397,503,o),
(429.5,514,q),
(462,525,o),
(494,525,q),
(532,525,o),
(563.5,512,q),
(595,499,o),
(610,477,q),
(621,521,l),
(706,521,l),
(707,230,l),
(707,205,o),
(714,189.5,q),
(721,174,o),
(731,164.5,q),
(741,155,o),
(753.5,151,q),
(766,147,o),
(776,147,q),
(832,147,o),
(859.5,193,q),
(887,239,o),
(887,338,q),
(887,419,o),
(862.5,485.5,q),
(838,552,o),
(794,600,q),
(750,648,o),
(688.5,674.5,q),
(627,701,o),
(552,701,q),
(454,701,o),
(381.5,670,q),
(309,639,o),
(262.5,585,q),
(216,531,o),
(193.5,458,q),
(171,385,o),
(171,301,q),
(171,231,o),
(190.5,171.5,q),
(210,112,o),
(236.5,65.5,q),
(263,19,o),
(291,-11,q),
(319,-41,o),
(337,-53,q),
(281,-120,l),
(250,-94,o),
(213.5,-52,q),
(177,-10,o),
(146,44.5,q),
(115,99,o),
(94.5,164,q),
(74,229,o),
(74,301,q),
(74,422,o),
(108.5,514.5,q),
(143,607,o),
(206.5,670,q),
(270,733,o),
(358,766,q),
(446,799,o),
(552,799,q)
);
},
{
closed = 1;
nodes = (
(538,152,o),
(556.5,163.5,q),
(575,175,o),
(588.5,195.5,q),
(602,216,o),
(609,243,q),
(616,270,o),
(616,301,q),
(616,333,o),
(608.5,360.5,q),
(601,388,o),
(587,408.5,q),
(573,429,o),
(554.5,441,q),
(536,453,o),
(512,453,q),
(488,453,o),
(469.5,440.5,q),
(451,428,o),
(437.5,407.5,q),
(424,387,o),
(417.5,359,q),
(411,331,o),
(411,300,q),
(411,269,o),
(418.5,242,q),
(426,215,o),
(439.5,195,q),
(453,175,o),
(471.5,163.5,q),
(490,152,o),
(513,152,q)
);
}
);
width = 1040;
}
);
unicode = 64;
},
{
category = Letter;
glyphname = A;
layers = (
{
layerId = "97546b08-5fa5-44df-a2da-6469103e6233";
name = Fore;
shapes = (
{
closed = 1;
nodes = (
(321,736,l),
(440,736,l),
(696,0,l),
(572,0,l),
(519,153,l),
(242,153,l),
(188,0,l),
(63,0,l)
);
},
{
closed = 1;
nodes = (
(490,234,l),
(381,552,l),
(270,234,l)
);
}
);
width = 759;
}
);
unicode = 65;
},
{
category = Letter;
glyphname = B;
layers = (
{
layerId = "97546b08-5fa5-44df-a2da-6469103e6233";
name = Fore;
shapes = (
{
closed = 1;
nodes = (
(467,385,o),
(493,373,q),
(519,361,o),
(541.5,339,q),
(564,317,o),
(579,285.5,q),
(594,254,o),
(594,213,q),
(594,163,o),
(579,127,q),
(564,91,o),
(541.5,67.5,q),
(519,44,o),
(492.5,30.5,q),
(466,17,o),
(441.5,10,q),
(417,3,o),
(398,1.5,q),
(379,0,o),
(373,0,q),
(96,0,l),
(96,737,l),
(308,737,l),
(355,737,o),
(399,726,q),
(443,715,o),
(477,691,q),
(511,667,o),
(531,628.5,q),
(551,590,o),
(551,537,q),
(551,506,o),
(541,480.5,q),
(531,455,o),
(516,436,q),
(501,417,o),
(481.5,404.5,q),
(462,392,o),
(444,388,q)
);
},
{
closed = 1;
nodes = (
(419,88,o),
(449,122,q),
(479,156,o),
(479,213,q),
(479,267,o),
(448,304,q),
(417,341,o),
(357,341,q),
(216,341,l),
(216,88,l),
(366,88,l)
);
},
{
closed = 1;
nodes = (
(327,422,o),
(350,423,q),
(373,424,o),
(393,434,q),
(413,444,o),
(425.5,468,q),
(438,492,o),
(438,537,q),
(438,555,o),
(433,574.5,q),
(428,594,o),
(413,610,q),
(398,626,o),
(370,636,q),
(342,646,o),
(296,646,q),
(216,646,l),
(216,422,l),
(221,422,l),
(305,422,l)
);
}
);
width = 671;
}
);
unicode = 66;
},
{
category = Letter;
glyphname = C;
layers = (
{
layerId = "97546b08-5fa5-44df-a2da-6469103e6233";
name = Fore;
shapes = (
{
closed = 1;
nodes = (
(550,35,o),
(498,15,q),
(446,-5,o),
(386,-5,q),
(320,-5,o),
(264.5,19,q),
(209,43,o),
(167.5,90,q),
(126,137,o),
(102.5,208,q),
(79,279,o),
(79,372,q),
(79,465,o),
(102.5,535.5,q),
(126,606,o),
(167.5,653,q),
(209,700,o),
(265,724.5,q),
(321,749,o),
(386,749,q),
(446,749,o),
(498,729,q),
(550,709,o),
(591,669,q),
(508,595,l),
(483,624,o),
(452.5,637,q),
(422,650,o),
(389,650,q),
(352,650,o),
(318.5,636,q),
(285,622,o),
(258.5,588.5,q),
(232,555,o),
(217,502,q),
(202,449,o),
(201,372,q),
(202,297,o),
(216.5,244,q),
(231,191,o),
(256.5,157.5,q),
(282,124,o),
(314.5,108.5,q),
(347,93,o),
(383,93,q),
(419,93,o),
(450.5,106,q),
(482,119,o),
(508,148,q),
(591,75,l)
);
}
);
width = 671;
}
);
unicode = 67;
},
{
category = Letter;
glyphname = D;
layers = (
{
layerId = "97546b08-5fa5-44df-a2da-6469103e6233";
name = Fore;
shapes = (
{
closed = 1;
nodes = (
(691,298,o),
(671.5,233.5,q),
(652,169,o),
(622,125.5,q),
(592,82,o),
(554.5,57,q),
(517,32,o),
(482,19.5,q),
(447,7,o),
(418,3.5,q),
(389,0,o),
(375,0,q),
(96,0,l),
(96,737,l),
(318,737,l),
(411,737,o),
(481.5,707.5,q),
(552,678,o),
(598.5,629,q),
(645,580,o),
(668,517.5,q),
(691,455,o),
(691,389,q)
);
},
{
closed = 1;
nodes = (
(457,88,o),
(511,166,q),
(565,244,o),
(565,392,q),
(565,438,o),
(554,483,q),
(543,528,o),
(511.5,564.5,q),
(480,601,o),
(426,623.5,q),
(372,646,o),
(286,646,q),
(216,646,l),
(216,88,l),
(335,88,l)
);
}
);
width = 770;
}
);
unicode = 68;
},
{
category = Letter;
glyphname = E;
layers = (
{
layerId = "97546b08-5fa5-44df-a2da-6469103e6233";
name = Fore;
shapes = (
{
closed = 1;
nodes = (
(217,414,l),
(525,414,l),
(525,332,l),
(217,332,l),
(217,91,l),
(556,91,l),
(556,0,l),
(95,0,l),
(95,737,l),
(556,737,l),
(556,646,l),
(217,646,l)
);
}
);
width = 628;
}
);
unicode = 69;
},
{
category = Letter;
glyphname = F;
layers = (
{
layerId = "97546b08-5fa5-44df-a2da-6469103e6233";
name = Fore;
shapes = (
{
closed = 1;
nodes = (
(217,414,l),
(525,414,l),
(525,332,l),
(217,332,l),
(217,0,l),
(95,0,l),
(95,737,l),
(556,737,l),
(556,646,l),
(217,646,l)
);
}
);
width = 591;
}
);
unicode = 70;
},
{
category = Letter;
glyphname = G;
layers = (
{
layerId = "97546b08-5fa5-44df-a2da-6469103e6233";
name = Fore;
shapes = (
{
closed = 1;
nodes = (
(629,95,l),
(606,66,o),
(577.5,47.5,q),
(549,29,o),
(517.5,17,q),
(486,5,o),
(452.5,0,q),
(419,-5,o),
(386,-5,q),
(320,-5,o),
(264.5,19,q),
(209,43,o),
(167.5,90,q),
(126,137,o),
(102.5,208,q),
(79,279,o),
(79,372,q),
(79,465,o),
(102.5,535.5,q),
(126,606,o),
(167.5,653,q),
(209,700,o),
(265,724.5,q),
(321,749,o),
(386,749,q),
(446,749,o),
(498,729,q),
(550,709,o),
(591,669,q),
(508,595,l),
(484,624,o),
(453,637,q),
(422,650,o),
(389,650,q),
(352,650,o),
(318.5,636,q),
(285,622,o),
(258.5,588.5,q),
(232,555,o),
(217,502,q),
(202,449,o),
(201,372,q),
(202,297,o),
(216.5,242,q),
(231,187,o),
(256.5,152,q),
(282,117,o),
(314.5,100,q),
(347,83,o),
(383,83,q),
(394,83,o),
(412.5,84.5,q),
(431,86,o),
(449.5,89.5,q),
(468,93,o),
(485,99,q),
(502,105,o),
(510,116,q),
(510,298,l),
(385,298,l),
(385,380,l),
(629,380,l)
);
}
);
width = 710;
}
);
unicode = 71;
},
{
category = Letter;
glyphname = H;
layers = (
{
layerId = "97546b08-5fa5-44df-a2da-6469103e6233";
name = Fore;
shapes = (
{
closed = 1;
nodes = (
(655,0,l),
(535,0,l),
(535,332,l),
(216,332,l),
(216,0,l),
(94,0,l),
(94,737,l),
(216,737,l),
(216,414,l),
(535,414,l),
(535,737,l),
(655,737,l)
);
}
);
width = 749;
}
);
unicode = 72;
},
{
category = Letter;
glyphname = I;
layers = (
{
layerId = "97546b08-5fa5-44df-a2da-6469103e6233";
name = Fore;
shapes = (
{
closed = 1;
nodes = (
(94,0,l),
(94,737,l),
(216,737,l),
(216,0,l)
);
}
);
width = 308;
}
);
unicode = 73;
},
{
category = Letter;
glyphname = J;
layers = (
{
layerId = "97546b08-5fa5-44df-a2da-6469103e6233";
name = Fore;
shapes = (
{
closed = 1;
nodes = (
(477,178,l),
(477,126,o),
(458,90.5,q),
(439,55,o),
(407,33.5,q),
(375,12,o),
(333.5,3.5,q),
(292,-5,o),
(248,-5,q),
(226,-5,o),
(196.5,-0.5,q),
(167,4,o),
(135.5,13.5,q),
(104,23,o),
(75,35,q),
(46,47,o),
(26,62,q),
(77,143,l),
(87,136,o),
(105.5,128.5,q),
(124,121,o),
(146,114.5,q),
(168,108,o),
(192,103,q),
(216,98,o),
(237,98,q),
(290,98,o),
(321.5,118.5,q),
(353,139,o),
(355,188,q),
(355,752,l),
(477,752,l)
);
}
);
width = 565;
}
);
unicode = 74;
},
{
category = Letter;
glyphname = K;
layers = (
{
layerId = "97546b08-5fa5-44df-a2da-6469103e6233";
name = Fore;
shapes = (
{
closed = 1;
nodes = (
(336,358,l),
(592,0,l),
(453,0,l),
(215,350,l),
(215,0,l),
(93,0,l),
(93,737,l),
(215,737,l),
(215,368,l),
(435,737,l),
(572,737,l)
);
}
);
width = 668;
}
);
unicode = 75;
},
{
category = Letter;
glyphname = L;
layers = (
{
layerId = "97546b08-5fa5-44df-a2da-6469103e6233";
name = Fore;
shapes = (
{
closed = 1;
nodes = (
(215,91,l),
(554,91,l),
(554,0,l),
(93,0,l),
(93,737,l),
(215,737,l)
);
}
);
width = 584;
}
);
unicode = 76;
},
{
category = Letter;
glyphname = M;
layers = (
{
layerId = "97546b08-5fa5-44df-a2da-6469103e6233";
name = Fore;
shapes = (
{
closed = 1;
nodes = (
(773,737,l),
(773,0,l),
(651,0,l),
(651,507,l),
(486,97,l),
(380,97,l),
(214,507,l),
(214,0,l),
(92,0,l),
(92,737,l),
(214,737,l),
(433,233,l),
(651,737,l)
);
}
);
width = 865;
}
);
unicode = 77;
},
{
category = Letter;
glyphname = N;
layers = (
{
layerId = "97546b08-5fa5-44df-a2da-6469103e6233";
name = Fore;
shapes = (
{
closed = 1;
nodes = (
(625,0,l),
(503,0,l),
(214,508,l),
(214,0,l),
(92,0,l),
(92,737,l),
(214,737,l),
(503,229,l),
(503,737,l),
(625,737,l)
);
}
);
width = 716;
}
);
unicode = 78;
},
{
category = Letter;
glyphname = O;
layers = (
{
layerId = "97546b08-5fa5-44df-a2da-6469103e6233";
name = Fore;
shapes = (
{
closed = 1;
nodes = (
(691,279,o),
(667.5,208,q),
(644,137,o),
(602.5,90,q),
(561,43,o),
(505.5,19,q),
(450,-5,o),
(384,-5,q),
(318,-5,o),
(262.5,19,q),
(207,43,o),
(165.5,90,q),
(124,137,o),
(100.5,208,q),
(77,279,o),
(77,372,q),
(77,465,o),
(100.5,535.5,q),
(124,606,o),
(165.5,653,q),
(207,700,o),
(262.5,724.5,q),
(318,749,o),
(384,749,q),
(450,749,o),
(505.5,724.5,q),
(561,700,o),
(602.5,653,q),
(644,606,o),
(667.5,535.5,q),
(691,465,o),
(691,372,q)
);
},
{
closed = 1;
nodes = (
(418,93,o),
(451.5,107.5,q),
(485,122,o),
(511.5,155,q),
(538,188,o),
(553,241.5,q),
(568,295,o),
(569,372,q),
(568,447,o),
(553.5,499.5,q),
(539,552,o),
(513.5,586,q),
(488,620,o),
(455.5,635,q),
(423,650,o),
(387,650,q),
(350,650,o),
(316.5,636,q),
(283,622,o),
(256.5,588.5,q),
(230,555,o),
(215,502,q),
(200,449,o),
(199,372,q),
(200,297,o),
(214.5,244,q),
(229,191,o),
(254.5,157.5,q),
(280,124,o),
(312.5,108.5,q),
(345,93,o),
(381,93,q)
);
}
);
width = 768;
}
);
unicode = 79;
},
{
category = Letter;
glyphname = P;
layers = (
{
layerId = "97546b08-5fa5-44df-a2da-6469103e6233";
name = Fore;
shapes = (
{
closed = 1;
nodes = (
(91,0,l),
(91,737,l),
(303,737,l),
(350,737,o),
(396,722,q),
(442,707,o),
(478.5,677,q),
(515,647,o),
(537.5,604.5,q),
(560,562,o),
(560,509,q),
(560,453,o),
(541,407.5,q),
(522,362,o),
(488,331,q),
(454,300,o),
(406,283,q),
(358,266,o),
(300,266,q),
(211,266,l),
(211,0,l)
);
},
{
closed = 1;
nodes = (
(211,354,l),
(321,354,l),
(343,354,o),
(364.5,361.5,q),
(386,369,o),
(404,386,q),
(422,403,o),
(433,433.5,q),
(444,464,o),
(444,509,q),
(444,527,o),
(439,550.5,q),
(434,574,o),
(418.5,595.5,q),
(403,617,o),
(375,631.5,q),
(347,646,o),
(301,646,q),
(211,646,l)
);
}
);
width = 605;
}
);
unicode = 80;
},
{
category = Letter;
glyphname = Q;
layers = (
{
layerId = "97546b08-5fa5-44df-a2da-6469103e6233";
name = Fore;
shapes = (
{
closed = 1;
nodes = (
(678,296,o),
(660,234,q),
(642,172,o),
(611,125,q),
(580,78,o),
(539,48,q),
(498,18,o),
(452,9,q),
(590,-169,l),
(458,-169,l),
(361,-3,l),
(332,-3,l),
(274,4,o),
(224.5,31,q),
(175,58,o),
(139,105,q),
(103,152,o),
(83,219,q),
(63,286,o),
(63,372,q),
(63,465,o),
(87,535.5,q),
(111,606,o),
(152.5,653,q),
(194,700,o),
(249.5,724.5,q),
(305,749,o),
(371,749,q),
(437,749,o),
(492.5,724.5,q),
(548,700,o),
(589.5,653,q),
(631,606,o),
(654.5,535.5,q),
(678,465,o),
(678,372,q)
);
},
{
closed = 1;
nodes = (
(186,297,o),
(201,244,q),
(216,191,o),
(241,157.5,q),
(266,124,o),
(299,108.5,q),
(332,93,o),
(368,93,q),
(405,93,o),
(438.5,107.5,q),
(472,122,o),
(498,155,q),
(524,188,o),
(539.5,241.5,q),
(555,295,o),
(556,372,q),
(555,447,o),
(540,499.5,q),
(525,552,o),
(500,586,q),
(475,620,o),
(442.5,635,q),
(410,650,o),
(374,650,q),
(337,650,o),
(303,636,q),
(269,622,o),
(243,588.5,q),
(217,555,o),
(201.5,502,q),
(186,449,o),
(185,372,q)
);
}
);
width = 749;
}
);
unicode = 81;
},
{
category = Letter;
glyphname = R;
layers = (
{
layerId = "97546b08-5fa5-44df-a2da-6469103e6233";
name = Fore;
shapes = (
{
closed = 1;
nodes = (
(324,267,l),
(321,267,o),
(316,266.5,q),
(311,266,o),
(300.5,266,q),
(290,266,o),
(268.5,266,q),
(247,266,o),
(210,266,q),
(210,0,l),
(90,0,l),
(90,737,l),
(302,737,l),
(349,737,o),
(395,722,q),
(441,707,o),
(477.5,677,q),
(514,647,o),
(536.5,604.5,q),
(559,562,o),
(559,509,q),
(559,429,o),
(522,373,q),
(485,317,o),
(422,290,q),
(590,0,l),
(463,0,l)
);
},
{
closed = 1;
nodes = (
(319,354,l),
(341,354,o),
(363,361.5,q),
(385,369,o),
(403,386,q),
(421,403,o),
(432,433.5,q),
(443,464,o),
(443,509,q),
(443,527,o),
(438,550.5,q),
(433,574,o),
(417.5,595.5,q),
(402,617,o),
(374,631.5,q),
(346,646,o),
(300,646,q),
(210,646,l),
(210,354,l)
);
}
);
width = 660;
}
);
unicode = 82;
},
{
category = Letter;
glyphname = S;
layers = (
{
layerId = "97546b08-5fa5-44df-a2da-6469103e6233";
name = Fore;
shapes = (
{
closed = 1;
nodes = (
(509,162,o),
(492.5,124.5,q),
(476,87,o),
(446,58.5,q),
(416,30,o),
(372,13,q),
(328,-4,o),
(272,-4,q),
(248,-4,o),
(222.5,-1.5,q),
(197,1,o),
(171,7,q),
(145,13,o),
(121.5,23.5,q),
(98,34,o),
(81,49,q),
(102,135,l),
(116,127,o),
(137.5,119.5,q),
(159,112,o),
(182,105.5,q),
(205,99,o),
(228,95,q),
(251,91,o),
(271,91,q),
(332,91,o),
(364.5,119.5,q),
(397,148,o),
(397,204,q),
(397,238,o),
(374,262,q),
(351,286,o),
(316.5,305.5,q),
(282,325,o),
(242,344.5,q),
(202,364,o),
(167,390.5,q),
(132,417,o),
(109,453,q),
(86,489,o),
(86,543,q),
(86,592,o),
(104,630,q),
(122,668,o),
(152.5,694.5,q),
(183,721,o),
(223.5,735,q),
(264,749,o),
(309,749,q),
(355,749,o),
(402,740.5,q),
(449,732,o),
(478,713,q),
(472,700,o),
(464,684.5,q),
(456,669,o),
(449,655.5,q),
(442,642,o),
(437,633,q),
(432,624,o),
(431,623,q),
(425,626,o),
(417.5,631,q),
(410,636,o),
(396,641,q),
(382,646,o),
(359,648,q),
(336,650,o),
(300,647,q),
(280,645,o),
(262,635.5,q),
(244,626,o),
(230,612,q),
(216,598,o),
(208,580.5,q),
(200,563,o),
(200,547,q),
(200,507,o),
(223,482.5,q),
(246,458,o),
(280,439.5,q),
(314,421,o),
(354,403.5,q),
(394,386,o),
(428.5,361,q),
(463,336,o),
(486,298.5,q),
(509,261,o),
(509,202,q)
);
}
);
width = 542;
}
);
unicode = 83;
},
{
category = Letter;
glyphname = T;
layers = (
{
layerId = "97546b08-5fa5-44df-a2da-6469103e6233";
name = Fore;
shapes = (
{
closed = 1;
nodes = (
(612,655,l),
(392,655,l),
(392,0,l),
(271,0,l),
(271,655,l),
(51,655,l),
(51,737,l),
(612,737,l)
);
}
);
width = 663;
}
);
unicode = 84;
},
{
category = Letter;
glyphname = U;
layers = (
{
layerId = "97546b08-5fa5-44df-a2da-6469103e6233";
name = Fore;
shapes = (
{
closed = 1;
nodes = (
(655,372,l),
(655,279,o),
(634.5,208,q),
(614,137,o),
(577,90,q),
(540,43,o),
(487,19,q),
(434,-5,o),
(369,-5,q),
(303,-5,o),
(250.5,19,q),
(198,43,o),
(160.5,90,q),
(123,137,o),
(102.5,208,q),
(82,279,o),
(82,372,q),
(82,737,l),
(204,737,l),
(204,384,l),
(204,302,o),
(215.5,246,q),
(227,190,o),
(248,156.5,q),
(269,123,o),
(299,108,q),
(329,93,o),
(366,93,q),
(404,93,o),
(435,107,q),
(466,121,o),
(488,154,q),
(510,187,o),
(522,243,q),
(534,299,o),
(534,384,q),
(534,737,l),
(655,737,l)
);
}
);
width = 737;
}
);
unicode = 85;
},
{
category = Letter;
glyphname = V;
layers = (
{
layerId = "97546b08-5fa5-44df-a2da-6469103e6233";
name = Fore;
shapes = (
{
closed = 1;
nodes = (
(60,737,l),
(197,737,l),
(368,101,l),
(549,737,l),
(685,737,l),
(445,-4,l),
(289,-4,l)
);
}
);
width = 743;
}
);
unicode = 86;
},
{
category = Letter;
glyphname = W;
layers = (
{
layerId = "97546b08-5fa5-44df-a2da-6469103e6233";
name = Fore;
shapes = (
{
closed = 1;
nodes = (
(823,-4,l),
(667,-4,l),
(546,552,l),
(417,-4,l),
(260,-4,l),
(73,737,l),
(209,737,l),
(339,101,l),
(479,737,l),
(615,737,l),
(745,101,l),
(886,737,l),
(1022,737,l)
);
}
);
width = 1093;
}
);
unicode = 87;
},
{
category = Letter;
glyphname = X;
layers = (
{
layerId = "97546b08-5fa5-44df-a2da-6469103e6233";
name = Fore;
shapes = (
{
closed = 1;
nodes = (
(617,0,l),
(478,0,l),
(361,278,l),
(351,278,l),
(225,0,l),
(86,0,l),
(273,358,l),
(74,737,l),
(211,737,l),
(341,437,l),
(351,437,l),
(492,737,l),
(629,737,l),
(430,358,l)
);
}
);
width = 702;
}
);
unicode = 88;
},
{
category = Letter;
glyphname = Y;
layers = (
{
layerId = "97546b08-5fa5-44df-a2da-6469103e6233";
name = Fore;
shapes = (
{
closed = 1;
nodes = (
(384,300,l),
(384,0,l),
(262,0,l),
(262,290,l),
(54,737,l),
(191,737,l),
(318,407,l),
(329,407,l),
(466,737,l),
(603,737,l)
);
}
);
width = 655;
}
);
unicode = 89;
},
{
category = Letter;
glyphname = Z;
layers = (
{
layerId = "97546b08-5fa5-44df-a2da-6469103e6233";
name = Fore;
shapes = (
{
closed = 1;
nodes = (
(568,640,l),
(217,113,l),
(197,97,l),
(568,97,l),
(568,0,l),
(78,0,l),
(78,97,l),
(429,624,l),
(450,640,l),
(78,640,l),
(78,737,l),
(568,737,l)
);
}
);
width = 645;
}
);
unicode = 90;
},
{
category = Letter;
glyphname = bracketleft;
layers = (
{
layerId = "97546b08-5fa5-44df-a2da-6469103e6233";
name = Fore;
shapes = (
{
closed = 1;
nodes = (
(167,676,l),
(167,19,l),
(270,19,l),
(270,-61,l),
(86,-61,l),
(86,757,l),
(270,757,l),
(270,676,l)
);
}
);
width = 327;
}
);
unicode = 91;
},
{
category = Letter;
glyphname = backslash;
layers = (
{
layerId = "97546b08-5fa5-44df-a2da-6469103e6233";
name = Fore;
shapes = (
{
closed = 1;
nodes = (
(115,799,l),
(422,-22,l),
(341,-22,l),
(34,799,l)
);
}
);
width = 455;
}
);
unicode = 92;
},
{
category = Letter;
glyphname = bracketright;
layers = (
{
layerId = "97546b08-5fa5-44df-a2da-6469103e6233";
name = Fore;
shapes = (
{
closed = 1;
nodes = (
(86,757,l),
(270,757,l),
(270,-61,l),
(86,-61,l),
(86,19,l),
(189,19,l),
(189,676,l),
(86,676,l)
);
}
);
width = 327;
}
);
unicode = 93;
},
{
category = Letter;
glyphname = grave;
layers = (
{
layerId = "97546b08-5fa5-44df-a2da-6469103e6233";
name = Fore;
shapes = (
{
closed = 1;
nodes = (
(145,777,l),
(213,635,l),
(132,635,l),
(24,777,l)
);
}
);
width = 224;
}
);
unicode = 96;
},
{
category = Letter;
glyphname = a;
layers = (
{
layerId = "97546b08-5fa5-44df-a2da-6469103e6233";
name = Fore;
shapes = (
{
closed = 1;
nodes = (
(495,167,l),
(495,159,o),
(496,143.5,q),
(497,128,o),
(500,112,q),
(503,96,o),
(509.5,83,q),
(516,70,o),
(527,66,q),
(495,-1,l),
(482,-1,o),
(467.5,5,q),
(453,11,o),
(439.5,22,q),
(426,33,o),
(416.5,46.5,q),
(407,60,o),
(402,76,q),
(395,59,o),
(377.5,44.5,q),
(360,30,o),
(338,18.5,q),
(316,7,o),
(290.5,1,q),
(265,-5,o),
(243,-5,q),
(209,-5,o),
(177.5,4,q),
(146,13,o),
(122,33,q),
(98,53,o),
(84.5,86,q),
(71,119,o),
(71,167,q),
(71,213,o),
(90.5,246.5,q),
(110,280,o),
(140.5,301.5,q),
(171,323,o),
(210,333.5,q),
(249,344,o),
(289,344,q),
(374,344,l),
(374,393,o),
(369,422,q),
(364,451,o),
(352,464.5,q),
(340,478,o),
(322.5,481.5,q),
(305,485,o),
(281,485,q),
(259,485,o),
(239.5,479.5,q),
(220,474,o),
(203.5,466.5,q),
(187,459,o),
(174.5,450,q),
(162,441,o),
(156,436,q),
(111,505,l),
(121,516,o),
(141,527.5,q),
(161,539,o),
(187,548,q),
(213,557,o),
(243.5,562.5,q),
(274,568,o),
(307,568,q),
(337,568,o),
(365.5,562,q),
(394,556,o),
(417.5,542,q),
(441,528,o),
(458.5,504.5,q),
(476,481,o),
(483,446,q),
(490,411,o),
(492.5,375.5,q),
(495,340,o),
(495,305,q),
(495,175,l)
);
},
{
closed = 1;
nodes = (
(311,273,l),
(291,273,o),
(269,269,q),
(247,265,o),
(228,254,q),
(209,243,o),
(196.5,222.5,q),
(184,202,o),
(184,170,q),
(184,120,o),
(206.5,98,q),
(229,76,o),
(272,76,q),
(302,76,o),
(329.5,92,q),
(357,108,o),
(375,135,q),
(375,273,l)
);
}
);
width = 600;
}
);
unicode = 97;
},
{
category = Letter;
glyphname = b;
layers = (
{
layerId = "97546b08-5fa5-44df-a2da-6469103e6233";
name = Fore;
shapes = (
{
closed = 1;
nodes = (
(591,347,o),
(591,292,q),
(591,235,o),
(577.5,181,q),
(564,127,o),
(536.5,85.5,q),
(509,44,o),
(467.5,19.5,q),
(426,-5,o),
(370,-5,q),
(340,-5,o),
(312,1,q),
(284,7,o),
(261.5,17.5,q),
(239,28,o),
(224.5,40.5,q),
(210,53,o),
(207,67,q),
(206,53,o),
(204,35,q),
(202,17,o),
(201,0,q),
(86,0,l),
(86,777,l),
(207,777,l),
(207,507,l),
(227,535,o),
(267.5,552,q),
(308,569,o),
(357,569,q),
(390,569,o),
(424,560,q),
(458,551,o),
(487.5,530,q),
(517,509,o),
(541.5,475,q),
(566,441,o),
(579,393,q)
);
},
{
closed = 1;
nodes = (
(359,90,o),
(383.5,105,q),
(408,120,o),
(425.5,145.5,q),
(443,171,o),
(453.5,206,q),
(464,241,o),
(464,281,q),
(464,320,o),
(454.5,355,q),
(445,390,o),
(428.5,417,q),
(412,444,o),
(388,460,q),
(364,476,o),
(334,476,q),
(304,476,o),
(279,461,q),
(254,446,o),
(236.5,420.5,q),
(219,395,o),
(209.5,360.5,q),
(200,326,o),
(200,286,q),
(200,246,o),
(208.5,210.5,q),
(217,175,o),
(234,148.5,q),
(251,122,o),
(274.5,106,q),
(298,90,o),
(329,90,q)
);
}
);
width = 641;
}
);
unicode = 98;
},
{
category = Letter;
glyphname = c;
layers = (
{
layerId = "97546b08-5fa5-44df-a2da-6469103e6233";
name = Fore;
shapes = (
{
closed = 1;
nodes = (
(470,36,o),
(430,15.5,q),
(390,-5,o),
(328,-5,q),
(269,-5,o),
(221,17.5,q),
(173,40,o),
(139,78.5,q),
(105,117,o),
(87.5,169,q),
(70,221,o),
(70,282,q),
(70,342,o),
(89,394,q),
(108,446,o),
(142,484.5,q),
(176,523,o),
(224,545,q),
(272,567,o),
(331,567,q),
(393,567,o),
(437,546.5,q),
(481,526,o),
(515,483,q),
(461,418,l),
(444,438,o),
(414,454.5,q),
(384,471,o),
(332,471,q),
(302,471,o),
(277,457,q),
(252,443,o),
(234.5,418,q),
(217,393,o),
(207.5,359,q),
(198,325,o),
(198,285,q),
(198,245,o),
(206.5,210.5,q),
(215,176,o),
(232,150,q),
(249,124,o),
(272.5,109,q),
(296,94,o),
(327,94,q),
(372,94,o),
(402.5,108.5,q),
(433,123,o),
(459,144,q),
(504,79,l)
);
}
);
width = 585;
}
);
unicode = 99;
},
{
category = Letter;
glyphname = d;
layers = (
{
layerId = "97546b08-5fa5-44df-a2da-6469103e6233";
name = Fore;
shapes = (
{
closed = 1;
nodes = (
(86,100,o),
(68,163,q),
(50,226,o),
(50,290,q),
(50,368,o),
(71.5,421,q),
(93,474,o),
(127,507,q),
(161,540,o),
(202.5,554.5,q),
(244,569,o),
(284,569,q),
(333,569,o),
(373.5,552,q),
(414,535,o),
(434,507,q),
(434,777,l),
(556,777,l),
(556,0,l),
(441,0,l),
(439,17,o),
(437.5,34.5,q),
(436,52,o),
(434,67,q),
(431,54,o),
(416.5,41,q),
(402,28,o),
(379.5,17.5,q),
(357,7,o),
(329,1,q),
(301,-5,o),
(271,-5,q),
(231,-5,o),
(192.5,9,q),
(154,23,o),
(124,57,q)
);
},
{
closed = 1;
nodes = (
(178,241,o),
(188,206.5,q),
(198,172,o),
(215,146,q),
(232,120,o),
(256.5,105,q),
(281,90,o),
(310,90,q),
(341,90,o),
(365.5,105.5,q),
(390,121,o),
(407,147,q),
(424,173,o),
(433,208,q),
(442,243,o),
(442,283,q),
(442,323,o),
(432.5,358,q),
(423,393,o),
(405.5,419,q),
(388,445,o),
(363.5,460.5,q),
(339,476,o),
(308,476,q),
(277,476,o),
(253,460.5,q),
(229,445,o),
(212.5,418,q),
(196,391,o),
(187,356,q),
(178,321,o),
(178,281,q)
);
}
);
width = 641;
}
);
unicode = 100;
},
{
category = Letter;
glyphname = e;
layers = (
{
layerId = "97546b08-5fa5-44df-a2da-6469103e6233";
name = Fore;
shapes = (
{
closed = 1;
nodes = (
(390,570,o),
(442,542.5,q),
(494,515,o),
(527.5,469.5,q),
(561,424,o),
(575.5,364.5,q),
(590,305,o),
(581,241,q),
(189,241,l),
(189,209,o),
(201,182,q),
(213,155,o),
(233.5,135.5,q),
(254,116,o),
(282.5,105,q),
(311,94,o),
(344,94,q),
(355,94,o),
(371.5,96.5,q),
(388,99,o),
(406.5,105.5,q),
(425,112,o),
(443.5,122,q),
(462,132,o),
(476,146,q),
(520,79,l),
(487,38,o),
(443,17,q),
(399,-4,o),
(331,-4,q),
(276,-4,o),
(228,18.5,q),
(180,41,o),
(146,80,q),
(112,119,o),
(92,171,q),
(72,223,o),
(72,283,q),
(72,342,o),
(92,394.5,q),
(112,447,o),
(145.5,486,q),
(179,525,o),
(225,547.5,q),
(271,570,o),
(322,570,q)
);
},
{
closed = 1;
nodes = (
(469,356,o),
(459,382,q),
(449,408,o),
(431.5,429,q),
(414,450,o),
(389,462.5,q),
(364,475,o),
(335,476,q),
(304,476,o),
(278,464,q),
(252,452,o),
(233,432,q),
(214,412,o),
(203.5,384.5,q),
(193,357,o),
(193,329,q),
(469,329,l)
);
}
);
width = 664;
}
);
unicode = 101;
},
{
category = Letter;
glyphname = f;
layers = (
{
layerId = "97546b08-5fa5-44df-a2da-6469103e6233";
name = Fore;
shapes = (
{
closed = 1;
nodes = (
(307,693,o),
(293.5,683,q),
(280,673,o),
(271,655,q),
(262,637,o),
(258,613.5,q),
(254,590,o),
(253,564,q),
(340,564,l),
(340,482,l),
(251,482,l),
(251,434,l),
(251,0,l),
(129,0,l),
(129,434,l),
(129,482,l),
(55,482,l),
(55,564,l),
(131,564,l),
(134,607,o),
(143,646.5,q),
(152,686,o),
(171.5,715.5,q),
(191,745,o),
(224.5,763,q),
(258,781,o),
(309,781,q),
(324,781,o),
(341,778.5,q),
(358,776,o),
(374.5,772.5,q),
(391,769,o),
(405,764,q),
(419,759,o),
(427,753,q),
(388,681,l),
(374,689,o),
(354.5,691,q),
(335,693,o),
(327,693,q)
);
}
);
width = 471;
}
);
unicode = 102;
},
{
category = Letter;
glyphname = g;
layers = (
{
layerId = "97546b08-5fa5-44df-a2da-6469103e6233";
name = Fore;
shapes = (
{
closed = 1;
nodes = (
(211,-90,o),
(226.5,-101,q),
(242,-112,o),
(258.5,-118,q),
(275,-124,o),
(291.5,-126.5,q),
(308,-129,o),
(321,-129,q),
(383,-129,o),
(418,-93,q),
(453,-57,o),
(453,30,q),
(453,56,l),
(453,58,l),
(454,63,l),
(454,64,o),
(453.5,65,q),
(453,66,o),
(453,67,q),
(450,54,o),
(435.5,41,q),
(421,28,o),
(399,17.5,q),
(377,7,o),
(349,1,q),
(321,-5,o),
(291,-5,q),
(235,-5,o),
(193,19.5,q),
(151,44,o),
(123,85,q),
(95,126,o),
(82,179,q),
(69,232,o),
(69,290,q),
(69,368,o),
(90.5,421,q),
(112,474,o),
(145.5,507.5,q),
(179,541,o),
(220.5,555,q),
(262,569,o),
(302,569,q),
(351,569,o),
(391.5,552,q),
(432,535,o),
(453,507,q),
(466,564,l),
(574,564,l),
(573,0,l),
(569,-61,o),
(548.5,-104,q),
(528,-147,o),
(496,-175,q),
(464,-203,o),
(422,-215,q),
(380,-227,o),
(332,-227,q),
(276,-227,o),
(221.5,-207.5,q),
(167,-188,o),
(131,-142,q),
(201,-73,l)
);
},
{
closed = 1;
nodes = (
(461,326,o),
(451,360,q),
(441,394,o),
(424,420,q),
(407,446,o),
(382,461,q),
(357,476,o),
(328,476,q),
(298,476,o),
(273.5,460.5,q),
(249,445,o),
(232,419,q),
(215,393,o),
(206,358,q),
(197,323,o),
(197,284,q),
(197,244,o),
(206.5,208.5,q),
(216,173,o),
(233.5,147,q),
(251,121,o),
(275.5,105.5,q),
(300,90,o),
(330,90,q),
(361,90,o),
(385,105.5,q),
(409,121,o),
(425.5,147.5,q),
(442,174,o),
(451.5,210,q),
(461,246,o),
(461,286,q)
);
}
);
width = 683;
}
);
unicode = 103;
},
{
category = Letter;
glyphname = h;
layers = (
{
layerId = "97546b08-5fa5-44df-a2da-6469103e6233";
name = Fore;
shapes = (
{
closed = 1;
nodes = (
(431,0,l),
(431,307,l),
(431,341,o),
(428,372,q),
(425,403,o),
(414,427,q),
(403,451,o),
(384,464.5,q),
(365,478,o),
(331,478,q),
(320,478,o),
(302.5,475,q),
(285,472,o),
(266.5,466,q),
(248,460,o),
(231.5,451,q),
(215,442,o),
(207,430,q),
(207,424,l),
(207,422,l),
(207,200,l),
(207,198,l),
(207,0,l),
(86,0,l),
(86,777,l),
(207,777,l),
(207,507,l),
(219,518,o),
(237.5,529.5,q),
(256,541,o),
(278,550,q),
(300,559,o),
(323,564.5,q),
(346,570,o),
(368,570,q),
(413,570,o),
(444,551,q),
(475,532,o),
(506,502,q),
(523,485,o),
(532.5,462.5,q),
(542,440,o),
(546.5,415.5,q),
(551,391,o),
(552,366,q),
(553,341,o),
(553,317,q),
(553,20,l),
(553,0,l)
);
}
);
width = 609;
}
);
unicode = 104;
},
{
category = Letter;
glyphname = i;
layers = (
{
layerId = "97546b08-5fa5-44df-a2da-6469103e6233";
name = Fore;
shapes = (
{
closed = 1;
nodes = (
(85,0,l),
(85,564,l),
(207,564,l),
(207,0,l)
);
},
{
closed = 1;
nodes = (
(218,714,o),
(197,693.5,q),
(176,673,o),
(146,673,q),
(116,673,o),
(95.5,694,q),
(75,715,o),
(75,744,q),
(75,774,o),
(96,795,q),
(117,816,o),
(146,816,q),
(176,816,o),
(197,795,q),
(218,774,o),
(218,744,q)
);
}
);
width = 291;
}
);
unicode = 105;
},
{
category = Letter;
glyphname = j;
layers = (
{
layerId = "97546b08-5fa5-44df-a2da-6469103e6233";
name = Fore;
shapes = (
{
closed = 1;
nodes = (
(-39,-210,o),
(-56,-199,q),
(-17,-126,l),
(-3,-134,o),
(16.5,-136.5,q),
(36,-139,o),
(44,-139,q),
(77,-139,o),
(93,-112.5,q),
(109,-86,o),
(114.5,-46,q),
(120,-6,o),
(119.5,39,q),
(119,84,o),
(120,121,q),
(120,564,l),
(242,564,l),
(242,120,l),
(242,82,o),
(242,41.5,q),
(242,1,o),
(237,-37.5,q),
(232,-76,o),
(222,-110,q),
(212,-144,o),
(192,-170,q),
(172,-196,o),
(139.5,-211,q),
(107,-226,o),
(60,-226,q),
(30,-226,o),
(-4.5,-218,q)
);
},
{
closed = 1;
nodes = (
(252,714,o),
(231.5,693.5,q),
(211,673,o),
(181,673,q),
(151,673,o),
(130.5,694,q),
(110,715,o),
(110,744,q),
(110,774,o),
(131,795,q),
(152,816,o),
(181,816,q),
(211,816,o),
(231.5,795,q),
(252,774,o),
(252,744,q)
);
}
);
width = 327;
}
);
unicode = 106;
},
{
category = Letter;
glyphname = k;
layers = (
{
layerId = "97546b08-5fa5-44df-a2da-6469103e6233";
name = Fore;
shapes = (
{
closed = 1;
nodes = (
(208,270,l),
(208,0,l),
(86,0,l),
(86,777,l),
(208,777,l),
(208,295,l),
(389,564,l),
(525,564,l),
(327,283,l),
(551,0,l),
(413,0,l)
);
}
);
width = 588;
}
);
unicode = 107;
},
{
category = Letter;
glyphname = l;
layers = (
{
layerId = "97546b08-5fa5-44df-a2da-6469103e6233";
name = Fore;
shapes = (
{
closed = 1;
nodes = (
(206,138,o),
(215,118.5,q),
(224,99,o),
(240,89.5,q),
(256,80,o),
(276.5,77,q),
(297,74,o),
(321,74,q),
(321,0,l),
(308,-2,o),
(294,-3,q),
(283,-4,o),
(268,-4.5,q),
(253,-5,o),
(238,-5,q),
(223,-5,o),
(208,-4,q),
(193,-3,o),
(181,-1,q),
(147,6,o),
(128,29,q),
(109,52,o),
(99,80.5,q),
(89,109,o),
(86.5,136,q),
(84,163,o),
(84,178,q),
(84,190,l),
(84,777,l),
(206,777,l),
(206,172,l)
);
}
);
width = 363;
}
);
unicode = 108;
},
{
category = Letter;
glyphname = m;
layers = (
{
layerId = "97546b08-5fa5-44df-a2da-6469103e6233";
name = Fore;
shapes = (
{
closed = 1;
nodes = (
(831,0,l),
(711,0,l),
(711,307,l),
(711,341,o),
(710.5,371.5,q),
(710,402,o),
(704,426,q),
(698,450,o),
(684.5,463.5,q),
(671,477,o),
(643,477,q),
(638,477,o),
(625.5,475.5,q),
(613,474,o),
(596,469.5,q),
(579,465,o),
(558.5,455,q),
(538,445,o),
(518,429,q),
(518,390,o),
(518.5,367,q),
(519,344,o),
(519,317,q),
(519,0,l),
(398,0,l),
(398,307,l),
(398,341,o),
(398,371.5,q),
(398,402,o),
(392,426,q),
(386,450,o),
(372,463.5,q),
(358,477,o),
(331,477,q),
(322,477,o),
(306,474.5,q),
(290,472,o),
(272.5,466,q),
(255,460,o),
(237.5,451,q),
(220,442,o),
(208,430,q),
(208,0,l),
(86,0,l),
(86,564,l),
(195,564,l),
(208,506,l),
(233,529,o),
(272.5,548.5,q),
(312,568,o),
(355,568,q),
(403,568,o),
(435,547,q),
(467,526,o),
(499,485,q),
(516,504,o),
(537,520,q),
(558,536,o),
(580.5,547,q),
(603,558,o),
(625,564,q),
(647,570,o),
(667,570,q),
(701,570,o),
(731,556.5,q),
(761,543,o),
(783.5,518,q),
(806,493,o),
(818.5,458.5,q),
(831,424,o),
(831,384,q),
(831,317,l),
(831,19,l)
);
}
);
width = 917;
}
);
unicode = 109;
},
{
category = Letter;
glyphname = n;
layers = (
{
layerId = "97546b08-5fa5-44df-a2da-6469103e6233";
name = Fore;
shapes = (
{
closed = 1;
nodes = (
(431,0,l),
(431,307,l),
(431,341,o),
(428,372,q),
(425,403,o),
(414,427,q),
(403,451,o),
(384,464.5,q),
(365,478,o),
(331,478,q),
(320,478,o),
(302.5,475,q),
(285,472,o),
(266.5,466,q),
(248,460,o),
(231.5,451,q),
(215,442,o),
(207,430,q),
(207,424,l),
(207,422,l),
(207,200,l),
(207,198,l),
(207,0,l),
(86,0,l),
(86,564,l),
(194,564,l),
(207,507,l),
(219,518,o),
(237.5,529.5,q),
(256,541,o),
(278,550,q),
(300,559,o),
(323,564.5,q),
(346,570,o),
(368,570,q),
(413,570,o),
(444,551,q),
(475,532,o),
(506,502,q),
(523,485,o),
(532.5,462.5,q),
(542,440,o),
(546.5,415.5,q),
(551,391,o),
(552,366,q),
(553,341,o),
(553,317,q),
(553,20,l),
(553,0,l)
);
}
);
width = 634;
}
);
unicode = 110;
},
{
category = Letter;
glyphname = o;
layers = (
{
layerId = "97546b08-5fa5-44df-a2da-6469103e6233";
name = Fore;
shapes = (
{
closed = 1;
nodes = (
(395,567,o),
(442,544.5,q),
(489,522,o),
(522,483,q),
(555,444,o),
(573,392,q),
(591,340,o),
(591,280,q),
(591,220,o),
(572,167.5,q),
(553,115,o),
(518.5,76.5,q),
(484,38,o),
(436.5,16.5,q),
(389,-5,o),
(331,-5,q),
(272,-5,o),
(223.5,17,q),
(175,39,o),
(141.5,78,q),
(108,117,o),
(90,169,q),
(72,221,o),
(72,282,q),
(72,343,o),
(91.5,396,q),
(111,449,o),
(145.5,486.5,q),
(180,524,o),
(229,545.5,q),
(278,567,o),
(337,567,q)
);
},
{
closed = 1;
nodes = (
(359,90,o),
(383.5,104.5,q),
(408,119,o),
(425.5,144.5,q),
(443,170,o),
(453.5,205,q),
(464,240,o),
(464,280,q),
(464,320,o),
(454.5,355,q),
(445,390,o),
(428.5,416.5,q),
(412,443,o),
(388,459,q),
(364,475,o),
(334,475,q),
(304,475,o),
(279,460,q),
(254,445,o),
(236.5,419.5,q),
(219,394,o),
(209.5,359.5,q),
(200,325,o),
(200,285,q),
(200,245,o),
(208.5,209.5,q),
(217,174,o),
(234,148,q),
(251,122,o),
(274.5,106,q),
(298,90,o),
(329,90,q)
);
}
);
width = 662;
}
);
unicode = 111;
},
{
category = Letter;
glyphname = p;
layers = (
{
layerId = "97546b08-5fa5-44df-a2da-6469103e6233";
name = Fore;
shapes = (
{
closed = 1;
nodes = (
(591,347,o),
(591,290,q),
(591,233,o),
(577.5,179.5,q),
(564,126,o),
(536.5,85,q),
(509,44,o),
(467.5,19.5,q),
(426,-5,o),
(370,-5,q),
(340,-5,o),
(312,1,q),
(284,7,o),
(262,17.5,q),
(240,28,o),
(225.5,40.5,q),
(211,53,o),
(208,67,q),
(208,-222,l),
(86,-222,l),
(86,564,l),
(195,564,l),
(208,507,l),
(228,535,o),
(268.5,552,q),
(309,569,o),
(358,569,q),
(391,569,o),
(425,560,q),
(459,551,o),
(488.5,530,q),
(518,509,o),
(542,475,q),
(566,441,o),
(579,393,q)
);
},
{
closed = 1;
nodes = (
(360,89,o),
(384.5,104,q),
(409,119,o),
(426.5,144.5,q),
(444,170,o),
(454,205.5,q),
(464,241,o),
(464,281,q),
(464,320,o),
(455,355,q),
(446,390,o),
(429.5,417,q),
(413,444,o),
(389.5,460,q),
(366,476,o),
(335,476,q),
(305,476,o),
(280,461,q),
(255,446,o),
(237,420.5,q),
(219,395,o),
(209.5,360.5,q),
(200,326,o),
(200,286,q),
(200,246,o),
(208.5,210.5,q),
(217,175,o),
(234,148,q),
(251,121,o),
(275,105,q),
(299,89,o),
(330,89,q)
);
}
);
width = 640;
}
);
unicode = 112;
},
{
category = Letter;
glyphname = q;
layers = (
{
layerId = "97546b08-5fa5-44df-a2da-6469103e6233";
name = Fore;
shapes = (
{
closed = 1;
nodes = (
(556,-78,o),
(556,-91,q),
(556,-104,o),
(559,-117,q),
(562,-130,o),
(570,-142,q),
(578,-154,o),
(593,-164,q),
(591,-167,o),
(586,-177.5,q),
(581,-188,o),
(574,-200,q),
(567,-213,o),
(559,-230,q),
(501,-222,o),
(467.5,-178.5,q),
(434,-135,o),
(434,-74,q),
(434,67,l),
(431,54,o),
(416.5,41,q),
(402,28,o),
(380,17.5,q),
(358,7,o),
(330,1,q),
(302,-5,o),
(272,-5,q),
(216,-5,o),
(174,19.5,q),
(132,44,o),
(104.5,85,q),
(77,126,o),
(63.5,179,q),
(50,232,o),
(50,290,q),
(50,368,o),
(71.5,421,q),
(93,474,o),
(127,507.5,q),
(161,541,o),
(202.5,555,q),
(244,569,o),
(284,569,q),
(333,569,o),
(373.5,552,q),
(414,535,o),
(434,507,q),
(447,564,l),
(556,564,l),
(556,-66,l)
);
},
{
closed = 1;
nodes = (
(343,90,o),
(366.5,105.5,q),
(390,121,o),
(407,147,q),
(424,173,o),
(433,208,q),
(442,243,o),
(442,283,q),
(442,323,o),
(432.5,358,q),
(423,393,o),
(405.5,419,q),
(388,445,o),
(363.5,460.5,q),
(339,476,o),
(309,476,q),
(279,476,o),
(254.5,460.5,q),
(230,445,o),
(213.5,419,q),
(197,393,o),
(187.5,358,q),
(178,323,o),
(178,284,q),
(178,243,o),
(188,207.5,q),
(198,172,o),
(215.5,146,q),
(233,120,o),
(257.5,105,q),
(282,90,o),
(313,90,q)
);
}
);
width = 640;
}
);
unicode = 113;
},
{
category = Letter;
glyphname = r;
layers = (
{
layerId = "97546b08-5fa5-44df-a2da-6469103e6233";
name = Fore;
shapes = (
{
closed = 1;
nodes = (
(375,450,o),
(335,451,q),
(299,451,o),
(263.5,442.5,q),
(228,434,o),
(207,414,q),
(207,200,l),
(207,198,l),
(207,0,l),
(86,0,l),
(86,564,l),
(194,564,l),
(207,506,l),
(222,521,o),
(238.5,533,q),
(255,545,o),
(277,552.5,q),
(299,560,o),
(329,564,q),
(359,568,o),
(403,568,q),
(403,442,l)
);
}
);
width = 446;
}
);
unicode = 114;
},
{
category = Letter;
glyphname = s;
layers = (
{
layerId = "97546b08-5fa5-44df-a2da-6469103e6233";
name = Fore;
shapes = (
{
closed = 1;
nodes = (
(126,126,l),
(146,112,o),
(173.5,100,q),
(201,88,o),
(243,88,q),
(298,88,o),
(329,105,q),
(360,122,o),
(360,155,q),
(360,179,o),
(342,193.5,q),
(324,208,o),
(296.5,218.5,q),
(269,229,o),
(237.5,238.5,q),
(206,248,o),
(179,262,q),
(126,290,o),
(99.5,321,q),
(73,352,o),
(73,403,q),
(73,445,o),
(90.5,477,q),
(108,509,o),
(136,530.5,q),
(164,552,o),
(200,563,q),
(236,574,o),
(273,574,q),
(323,574,o),
(365,563.5,q),
(407,553,o),
(446,528,q),
(407,445,l),
(377,462,o),
(342,468.5,q),
(307,475,o),
(273,475,q),
(236,475,o),
(214.5,458.5,q),
(193,442,o),
(193,407,q),
(193,380,o),
(212.5,364.5,q),
(232,349,o),
(263,337,q),
(294,325,o),
(329,313,q),
(364,301,o),
(394.5,282.5,q),
(425,264,o),
(445,236,q),
(465,208,o),
(465,164,q),
(465,121,o),
(448,89,q),
(431,57,o),
(402,36,q),
(373,15,o),
(335,5,q),
(297,-5,o),
(254,-5,q),
(228,-5,o),
(206,-3.5,q),
(184,-2,o),
(163,3,q),
(142,8,o),
(121,18,q),
(100,28,o),
(75,45,q)
);
}
);
width = 536;
}
);
unicode = 115;
},
{
category = Letter;
glyphname = t;
layers = (
{
layerId = "97546b08-5fa5-44df-a2da-6469103e6233";
name = Fore;
shapes = (
{
closed = 1;
nodes = (
(247,137,o),
(256,118,q),
(265,99,o),
(281.5,89,q),
(298,79,o),
(318.5,76.5,q),
(339,74,o),
(362,74,q),
(362,0,l),
(349,-2,o),
(336,-3,q),
(325,-4,o),
(309.5,-4.5,q),
(294,-5,o),
(279,-5,q),
(264,-5,o),
(248.5,-4,q),
(233,-3,o),
(222,-1,q),
(188,5,o),
(169,28.5,q),
(150,52,o),
(140.5,80.5,q),
(131,109,o),
(128.5,136,q),
(126,163,o),
(126,178,q),
(126,482,l),
(52,482,l),
(52,564,l),
(126,564,l),
(126,724,l),
(247,724,l),
(247,564,l),
(337,564,l),
(337,482,l),
(247,482,l),
(247,171,l)
);
}
);
width = 418;
}
);
unicode = 116;
},
{
category = Letter;
glyphname = u;
layers = (
{
layerId = "97546b08-5fa5-44df-a2da-6469103e6233";
name = Fore;
shapes = (
{
closed = 1;
nodes = (
(82,564,l),
(204,564,l),
(204,257,l),
(204,222,o),
(207,191.5,q),
(210,161,o),
(220,138,q),
(230,115,o),
(250,101,q),
(270,87,o),
(303,87,q),
(313,87,o),
(331,89.5,q),
(349,92,o),
(367.5,98,q),
(386,104,o),
(402.5,113,q),
(419,122,o),
(427,134,q),
(427,141,l),
(427,142,l),
(427,366,l),
(427,367,l),
(427,564,l),
(549,564,l),
(549,0,l),
(440,0,l),
(427,58,l),
(415,47,o),
(397,36,q),
(379,25,o),
(357.5,15.5,q),
(336,6,o),
(313.5,0.5,q),
(291,-5,o),
(269,-5,q),
(245,-5,o),
(226,-0.5,q),
(207,4,o),
(190.5,13.5,q),
(174,23,o),
(159,35,q),
(144,47,o),
(129,62,q),
(112,79,o),
(102,101.5,q),
(92,124,o),
(87.5,148.5,q),
(83,173,o),
(82.5,198,q),
(82,223,o),
(82,247,q),
(82,545,l),
(82,544,l)
);
}
);
width = 633;
}
);
unicode = 117;
},
{
category = Letter;
glyphname = v;
layers = (
{
layerId = "97546b08-5fa5-44df-a2da-6469103e6233";
name = Fore;
shapes = (
{
closed = 1;
nodes = (
(59,564,l),
(196,564,l),
(336,94,l),
(476,564,l),
(612,564,l),
(414,-4,l),
(257,-4,l)
);
}
);
width = 671;
}
);
unicode = 118;
},
{
category = Letter;
glyphname = w;
layers = (
{
layerId = "97546b08-5fa5-44df-a2da-6469103e6233";
name = Fore;
shapes = (
{
closed = 1;
nodes = (
(703,-4,l),
(547,-4,l),
(464,322,l),
(374,-4,l),
(217,-4,l),
(72,564,l),
(202,564,l),
(295,94,l),
(400,564,l),
(531,564,l),
(626,94,l),
(731,564,l),
(862,564,l)
);
}
);
width = 932;
}
);
unicode = 119;
},
{
category = Letter;
glyphname = x;
layers = (
{
layerId = "97546b08-5fa5-44df-a2da-6469103e6233";
name = Fore;
shapes = (
{
closed = 1;
nodes = (
(419,283,l),
(603,0,l),
(464,0,l),
(350,202,l),
(340,202,l),
(217,0,l),
(78,0,l),
(262,283,l),
(77,564,l),
(214,564,l),
(330,361,l),
(340,361,l),
(467,564,l),
(604,564,l)
);
}
);
width = 680;
}
);
unicode = 120;
},
{
category = Letter;
glyphname = y;
layers = (
{
layerId = "97546b08-5fa5-44df-a2da-6469103e6233";
name = Fore;
shapes = (
{
closed = 1;
nodes = (
(575,417,o),
(532,303.5,q),
(489,190,o),
(457,104.5,q),
(425,19,o),
(400.5,-40,q),
(376,-99,o),
(355.5,-138.5,q),
(335,-178,o),
(317,-200.5,q),
(299,-223,o),
(280,-235,q),
(261,-247,o),
(238.5,-249.5,q),
(216,-252,o),
(187,-252,q),
(178,-252,o),
(166,-249.5,q),
(154,-247,o),
(142.5,-243.5,q),
(131,-240,o),
(122,-236.5,q),
(113,-233,o),
(110,-232,q),
(114,-214,o),
(118,-198,q),
(121,-184,o),
(124.5,-171.5,q),
(128,-159,o),
(130,-154,q),
(138,-154,o),
(154.5,-159,q),
(171,-164,o),
(179,-164,q),
(195,-164,o),
(207.5,-162.5,q),
(220,-161,o),
(230,-153.5,q),
(240,-146,o),
(249,-131.5,q),
(258,-117,o),
(269,-90,q),
(307,0,l),
(76,564,l),
(197,564,l),
(362,130,l),
(508,564,l),
(630,564,l)
);
}
);
width = 672;
}
);
unicode = 121;
},
{
category = Letter;
glyphname = z;
layers = (
{
layerId = "97546b08-5fa5-44df-a2da-6469103e6233";
name = Fore;
shapes = (
{
closed = 1;
nodes = (
(515,564,l),
(515,467,l),
(225,113,l),
(205,97,l),
(515,97,l),
(515,0,l),
(86,0,l),
(86,97,l),
(376,451,l),
(396,467,l),
(86,467,l),
(86,564,l)
);
}
);
width = 601;
}
);
unicode = 122;
},
{
category = Letter;
glyphname = bar;
layers = (
{
layerId = "97546b08-5fa5-44df-a2da-6469103e6233";
name = Fore;
shapes = (
{
closed = 1;
nodes = (
(86,-242,l),
(86,809,l),
(167,809,l),
(167,-242,l)
);
}
);
width = 250;
}
);
unicode = 124;
},
{
category = Letter;
glyphname = cent;
layers = (
{
layerId = "97546b08-5fa5-44df-a2da-6469103e6233";
name = Fore;
shapes = (
{
closed = 1;
nodes = (
(372,94,o),
(402.5,108.5,q),
(433,123,o),
(459,144,q),
(504,79,l),
(475,43,o),
(442.5,22.5,q),
(410,2,o),
(364,-3,q),
(364,-82,l),
(283,-82,l),
(283,-1,l),
(234,7,o),
(194.5,31.5,q),
(155,56,o),
(127,94,q),
(99,132,o),
(84.5,179.5,q),
(70,227,o),
(70,282,q),
(70,336,o),
(85,383.5,q),
(100,431,o),
(128,468,q),
(156,505,o),
(195,530,q),
(234,555,o),
(283,563,q),
(283,647,l),
(364,647,l),
(364,565,l),
(413,560,o),
(449,539.5,q),
(485,519,o),
(515,483,q),
(461,418,l),
(444,438,o),
(414,454.5,q),
(384,471,o),
(332,471,q),
(302,471,o),
(277,457,q),
(252,443,o),
(234.5,418,q),
(217,393,o),
(207.5,359,q),
(198,325,o),
(198,285,q),
(198,245,o),
(206.5,210.5,q),
(215,176,o),
(232,150,q),
(249,124,o),
(272.5,109,q),
(296,94,o),
(327,94,q)
);
}
);
width = 585;
}
);
unicode = 162;
},
{
category = Letter;
glyphname = sterling;
layers = (
{
layerId = "97546b08-5fa5-44df-a2da-6469103e6233";
name = Fore;
shapes = (
{
closed = 1;
nodes = (
(135,82,l),
(135,400,l),
(61,400,l),
(61,482,l),
(137,482,l),
(137,516,o),
(140.5,559,q),
(144,602,o),
(161.5,641,q),
(179,680,o),
(215,708.5,q),
(251,737,o),
(315,742,q),
(376,747,o),
(416.5,736,q),
(457,725,o),
(474,714,q),
(434,638,l),
(420,646,o),
(390.5,650,q),
(361,654,o),
(333,654,q),
(301,654,o),
(285.5,637.5,q),
(270,621,o),
(264.5,594.5,q),
(259,568,o),
(259,538,q),
(259,508,o),
(259,482,q),
(367,482,l),
(367,400,l),
(257,400,l),
(257,82,l),
(437,82,l),
(437,0,l),
(61,0,l),
(61,82,l)
);
}
);
width = 526;
}
);
unicode = 163;
},
{
category = Letter;
glyphname = currency;
layers = (
{
layerId = "97546b08-5fa5-44df-a2da-6469103e6233";
name = Fore;
shapes = (
{
closed = 1;
nodes = (
(544,303,o),
(512,249,q),
(600,175,l),
(528,103,l),
(459,187,l),
(434,170,o),
(404,160,q),
(374,150,o),
(339,150,q),
(268,150,o),
(219,187,q),
(150,103,l),
(78,175,l),
(166,248,l),
(151,275,o),
(143,307,q),
(135,339,o),
(135,375,q),
(135,446,o),
(167,501,q),
(78,573,l),
(150,645,l),
(220,560,l),
(271,600,o),
(343,600,q),
(411,599,o),
(460,562,q),
(528,645,l),
(600,573,l),
(512,501,l),
(544,446,o),
(544,374,q)
);
},
{
closed = 1;
nodes = (
(362,214,o),
(382,226.5,q),
(402,239,o),
(417.5,260,q),
(433,281,o),
(441.5,310,q),
(450,339,o),
(450,373,q),
(450,407,o),
(442,436.5,q),
(434,466,o),
(420.5,488,q),
(407,510,o),
(386.5,523.5,q),
(366,537,o),
(341,537,q),
(316,537,o),
(295,524.5,q),
(274,512,o),
(259.5,490.5,q),
(245,469,o),
(236.5,440.5,q),
(228,412,o),
(228,378,q),
(228,344,o),
(236,314.5,q),
(244,285,o),
(257.5,263,q),
(271,241,o),
(291,227.5,q),
(311,214,o),
(337,214,q)
);
}
);
width = 677;
}
);
unicode = 164;
},
{
category = Letter;
glyphname = yen;
layers = (
{
layerId = "97546b08-5fa5-44df-a2da-6469103e6233";
name = Fore;
shapes = (
{
closed = 1;
nodes = (
(452,427,l),
(562,427,l),
(562,345,l),
(411,345,l),
(388,290,l),
(388,284,l),
(562,284,l),
(562,202,l),
(388,202,l),
(388,0,l),
(266,0,l),
(266,202,l),
(102,202,l),
(102,284,l),
(266,284,l),
(266,290,l),
(241,345,l),
(102,345,l),
(102,427,l),
(203,427,l),
(58,737,l),
(196,737,l),
(323,407,l),
(333,407,l),
(470,737,l),
(607,737,l)
);
}
);
width = 664;
}
);
unicode = 165;
},
{
category = Letter;
glyphname = dieresis;
layers = (
{
layerId = "97546b08-5fa5-44df-a2da-6469103e6233";
name = Fore;
shapes = (
{
closed = 1;
nodes = (
(459,681,o),
(438,660,q),
(417,639,o),
(387,639,q),
(357,639,o),
(336,660,q),
(315,681,o),
(315,711,q),
(315,741,o),
(336,761.5,q),
(357,782,o),
(387,782,q),
(417,782,o),
(438,761.5,q),
(459,741,o),
(459,711,q)
);
},
{
closed = 1;
nodes = (
(162,681,o),
(141,660,q),
(120,639,o),
(90,639,q),
(60,639,o),
(39,660,q),
(18,681,o),
(18,711,q),
(18,741,o),
(39,761.5,q),
(60,782,o),
(90,782,q),
(120,782,o),
(141,761.5,q),
(162,741,o),
(162,711,q)
);
}
);
width = 538;
}
);
unicode = 168;
},
{
category = Letter;
glyphname = guillemotleft;
layers = (
{
layerId = "97546b08-5fa5-44df-a2da-6469103e6233";
name = Fore;
shapes = (
{
closed = 1;
nodes = (
(401,31,l),
(262,31,l),
(60,283,l),
(265,534,l),
(402,534,l),
(197,283,l)
);
},
{
closed = 1;
nodes = (
(657,31,l),
(518,31,l),
(316,283,l),
(521,534,l),
(658,534,l),
(453,283,l)
);
}
);
width = 736;
}
);
unicode = 171;
},
{
category = Letter;
glyphname = acute;
layers = (
{
layerId = "97546b08-5fa5-44df-a2da-6469103e6233";
name = Fore;
shapes = (
{
closed = 1;
nodes = (
(104,635,l),
(24,635,l),
(91,777,l),
(213,777,l)
);
}
);
width = 224;
}
);
unicode = 180;
},
{
category = Letter;
glyphname = cedilla;
layers = (
{
layerId = "97546b08-5fa5-44df-a2da-6469103e6233";
name = Fore;
shapes = (
{
closed = 1;
nodes = (
(133,-64,o),
(151,-63,q),
(169,-63,o),
(184.5,-71,q),
(200,-79,o),
(210.5,-90.5,q),
(221,-102,o),
(227,-116.5,q),
(233,-131,o),
(233,-145,q),
(233,-191,o),
(202.5,-217,q),
(172,-243,o),
(120,-243,q),
(120,-185,l),
(174,-185,o),
(174,-147,q),
(174,-130,o),
(159.5,-117.5,q),
(145,-105,o),
(121,-105,q),
(108,-105,o),
(89,-111,q),
(48,-92,l),
(106,7,l),
(183,7,l),
(116,-71,l)
);
}
);
width = 294;
}
);
unicode = 184;
},
{
category = Letter;
glyphname = guillemotright;
layers = (
{
layerId = "97546b08-5fa5-44df-a2da-6469103e6233";
name = Fore;
shapes = (
{
closed = 1;
nodes = (
(471,534,l),
(676,283,l),
(474,31,l),
(335,31,l),
(540,283,l),
(334,534,l)
);
},
{
closed = 1;
nodes = (
(215,534,l),
(420,283,l),
(218,31,l),
(79,31,l),
(284,283,l),
(78,534,l)
);
}
);
width = 736;
}
);
unicode = 187;
},
{
category = Letter;
glyphname = Eth;
layers = (
{
layerId = "97546b08-5fa5-44df-a2da-6469103e6233";
name = Fore;
shapes = (
{
closed = 1;
nodes = (
(96,737,l),
(318,737,l),
(411,737,o),
(481.5,707.5,q),
(552,678,o),
(598.5,629,q),
(645,580,o),
(668,517.5,q),
(691,455,o),
(691,389,q),
(691,298,o),
(671.5,233.5,q),
(652,169,o),
(622,125.5,q),
(592,82,o),
(554.5,57,q),
(517,32,o),
(482,19.5,q),
(447,7,o),
(418,3.5,q),
(389,0,o),
(375,0,q),
(96,0,l),
(96,318,l),
(7,318,l),
(7,420,l),
(96,420,l)
);
},
{
closed = 1;
nodes = (
(457,88,o),
(511,166,q),
(565,244,o),
(565,392,q),
(565,438,o),
(554,483,q),
(543,528,o),
(511.5,564.5,q),
(480,601,o),
(426,623.5,q),
(372,646,o),
(286,646,q),
(216,646,l),
(216,420,l),
(326,420,l),
(326,318,l),
(216,318,l),
(216,88,l),
(335,88,l)
);
}
);
width = 770;
}
);
unicode = 208;
},
{
category = Letter;
glyphname = multiply;
layers = (
{
layerId = "97546b08-5fa5-44df-a2da-6469103e6233";
name = Fore;
shapes = (
{
closed = 1;
nodes = (
(522,61,l),
(383,61,l),
(310,202,l),
(300,202,l),
(218,61,l),
(79,61,l),
(222,283,l),
(78,503,l),
(215,503,l),
(290,361,l),
(300,361,l),
(386,503,l),
(523,503,l),
(379,283,l)
);
}
);
width = 601;
}
);
unicode = 215;
},
{
category = Letter;
glyphname = Thorn;
layers = (
{
layerId = "97546b08-5fa5-44df-a2da-6469103e6233";
name = Fore;
shapes = (
{
closed = 1;
nodes = (
(91,0,l),
(91,737,l),
(211,737,l),
(211,655,l),
(303,655,l),
(350,655,o),
(396,640,q),
(442,625,o),
(478.5,595,q),
(515,565,o),
(537.5,522.5,q),
(560,480,o),
(560,427,q),
(560,371,o),
(541,326,q),
(522,281,o),
(488,249.5,q),
(454,218,o),
(406,201,q),
(358,184,o),
(300,184,q),
(211,184,l),
(211,0,l)
);
},
{
closed = 1;
nodes = (
(211,272,l),
(321,272,l),
(343,272,o),
(364.5,279.5,q),
(386,287,o),
(404,304.5,q),
(422,322,o),
(433,352,q),
(444,382,o),
(444,427,q),
(444,445,o),
(439,469,q),
(434,493,o),
(418.5,514.5,q),
(403,536,o),
(375,550,q),
(347,564,o),
(301,564,q),
(211,564,l)
);
}
);
width = 852;
}
);
unicode = 222;
},
{
category = Letter;
glyphname = germandbls;
layers = (
{
layerId = "97546b08-5fa5-44df-a2da-6469103e6233";
name = Fore;
shapes = (
{
closed = 1;
nodes = (
(483,385,o),
(504.5,373,q),
(526,361,o),
(543,339,q),
(560,317,o),
(571,285.5,q),
(582,254,o),
(582,213,q),
(582,163,o),
(572,126.5,q),
(562,90,o),
(546.5,66,q),
(531,42,o),
(512,27.5,q),
(493,13,o),
(474,6,q),
(455,-1,o),
(437.5,-3,q),
(420,-5,o),
(409,-5,q),
(367,-5,o),
(340,-1.5,q),
(313,2,o),
(296.5,7,q),
(280,12,o),
(269.5,18.5,q),
(259,25,o),
(250,30,q),
(278,106,l),
(295,98,o),
(319,89.5,q),
(343,81,o),
(391,81,q),
(430,81,o),
(448.5,118.5,q),
(467,156,o),
(467,213,q),
(467,240,o),
(459.5,263.5,q),
(452,287,o),
(438.5,304.5,q),
(425,322,o),
(406,331.5,q),
(387,341,o),
(366,341,q),
(295,341,l),
(295,422,l),
(351,422,l),
(367,422,o),
(382.5,427.5,q),
(398,433,o),
(410.5,447.5,q),
(423,462,o),
(431.5,486,q),
(440,510,o),
(443,548,q),
(443,624,o),
(411,656,q),
(379,688,o),
(330,688,q),
(288,688,o),
(263.5,669,q),
(239,650,o),
(225,612.5,q),
(211,575,o),
(207,518,q),
(203,461,o),
(203,384,q),
(203,0,l),
(81,0,l),
(81,396,l),
(81,489,o),
(92,561.5,q),
(103,634,o),
(131,683,q),
(159,732,o),
(206.5,757,q),
(254,782,o),
(327,782,q),
(377,782,o),
(419,767.5,q),
(461,753,o),
(491,723.5,q),
(521,694,o),
(538,650,q),
(555,606,o),
(555,548,q),
(552,521,o),
(543,494,q),
(534,467,o),
(521.5,445,q),
(509,423,o),
(493,407.5,q),
(477,392,o),
(460,388,q)
);
}
);
width = 655;
}
);
unicode = 223;
},
{
category = Letter;
glyphname = eth;
layers = (
{
layerId = "97546b08-5fa5-44df-a2da-6469103e6233";
name = Fore;
shapes = (
{
closed = 1;
nodes = (
(520,621,o),
(546,526.5,q),
(572,432,o),
(572,292,q),
(572,227,o),
(557,173,q),
(542,119,o),
(510,79,q),
(478,39,o),
(430,17,q),
(382,-5,o),
(316,-5,q),
(280,-5,o),
(237.5,7.5,q),
(195,20,o),
(157.5,51.5,q),
(120,83,o),
(95,134.5,q),
(70,186,o),
(70,264,q),
(70,306,o),
(85.5,348,q),
(101,390,o),
(131,424,q),
(161,458,o),
(203.5,479,q),
(246,500,o),
(298,500,q),
(350,500,o),
(391.5,481.5,q),
(433,463,o),
(446,436,q),
(447,435,o),
(450,435,q),
(453,435,o),
(454,434,q),
(453,479,o),
(442,525.5,q),
(431,572,o),
(409,602,q),
(351,545,l),
(280,616,l),
(327,665,l),
(322,671,o),
(310.5,678,q),
(299,685,o),
(284.5,692,q),
(270,699,o),
(255,705.5,q),
(240,712,o),
(226,716,q),
(226,778,l),
(254,778,o),
(281,773.5,q),
(308,769,o),
(331,762,q),
(354,755,o),
(371,747,q),
(388,739,o),
(396,733,q),
(463,799,l),
(535,727,l),
(477,671,l)
);
},
{
closed = 1;
nodes = (
(346,92,o),
(372,104.5,q),
(398,117,o),
(417,138.5,q),
(436,160,o),
(447.5,189.5,q),
(459,219,o),
(459,254,q),
(459,289,o),
(447.5,317.5,q),
(436,346,o),
(417,366.5,q),
(398,387,o),
(372,399,q),
(346,411,o),
(315,411,q),
(285,411,o),
(259.5,399,q),
(234,387,o),
(215.5,366.5,q),
(197,346,o),
(186,317.5,q),
(175,289,o),
(175,254,q),
(175,219,o),
(186,189.5,q),
(197,160,o),
(215.5,138.5,q),
(234,117,o),
(259.5,104.5,q),
(285,92,o),
(315,92,q)
);
}
);
width = 645;
}
);
unicode = 240;
},
{
category = Letter;
glyphname = divide;
layers = (
{
layerId = "97546b08-5fa5-44df-a2da-6469103e6233";
name = Fore;
shapes = (
{
closed = 1;
nodes = (
(511,242,l),
(44,242,l),
(44,343,l),
(511,343,l)
);
},
{
closed = 1;
nodes = (
(344,468,o),
(323,447,q),
(302,426,o),
(272,426,q),
(242,426,o),
(221.5,447,q),
(201,468,o),
(201,498,q),
(201,528,o),
(222,548.5,q),
(243,569,o),
(272,569,q),
(302,569,o),
(323,548.5,q),
(344,528,o),
(344,498,q)
);
},
{
closed = 1;
nodes = (
(344,37,o),
(323,16,q),
(302,-5,o),
(272,-5,q),
(242,-5,o),
(221.5,16,q),
(201,37,o),
(201,67,q),
(201,97,o),
(222,117.5,q),
(243,138,o),
(272,138,q),
(302,138,o),
(323,117.5,q),
(344,97,o),
(344,67,q)
);
}
);
width = 551;
}
);
unicode = 247;
},
{
category = Letter;
glyphname = thorn;
layers = (
{
layerId = "97546b08-5fa5-44df-a2da-6469103e6233";
name = Fore;
shapes = (
{
closed = 1;
nodes = (
(591,347,o),
(591,290,q),
(591,233,o),
(577.5,179.5,q),
(564,126,o),
(536.5,85,q),
(509,44,o),
(467.5,19.5,q),
(426,-5,o),
(370,-5,q),
(340,-5,o),
(312,1,q),
(284,7,o),
(262,17.5,q),
(240,28,o),
(225.5,40.5,q),
(211,53,o),
(208,67,q),
(208,-222,l),
(86,-222,l),
(86,777,l),
(208,777,l),
(208,507,l),
(228,535,o),
(268.5,552,q),
(309,569,o),
(358,569,q),
(391,569,o),
(425,560,q),
(459,551,o),
(488.5,530,q),
(518,509,o),
(542,475,q),
(566,441,o),
(579,393,q)
);
},
{
closed = 1;
nodes = (
(360,89,o),
(384.5,104,q),
(409,119,o),
(426.5,144.5,q),
(444,170,o),
(454,205.5,q),
(464,241,o),
(464,281,q),
(464,320,o),
(455,355,q),
(446,390,o),
(429.5,417,q),
(413,444,o),
(389.5,460,q),
(366,476,o),
(335,476,q),
(305,476,o),
(280,461,q),
(255,446,o),
(237,420.5,q),
(219,395,o),
(209.5,360.5,q),
(200,326,o),
(200,286,q),
(200,246,o),
(208.5,210.5,q),
(217,175,o),
(234,148,q),
(251,121,o),
(275,105,q),
(299,89,o),
(330,89,q)
);
}
);
width = 625;
}
);
unicode = 254;
},
{
category = Letter;
glyphname = dotlessi;
layers = (
{
layerId = "97546b08-5fa5-44df-a2da-6469103e6233";
name = Fore;
shapes = (
{
closed = 1;
nodes = (
(85,0,l),
(85,564,l),
(207,564,l),
(207,0,l)
);
}
);
width = 291;
}
);
unicode = 305;
},
{
category = Letter;
glyphname = Lslash;
layers = (
{
layerId = "97546b08-5fa5-44df-a2da-6469103e6233";
name = Fore;
shapes = (
{
closed = 1;
nodes = (
(453,442,l),
(113,204,l),
(41,275,l),
(381,514,l)
);
},
{
closed = 1;
nodes = (
(287,91,l),
(626,91,l),
(626,0,l),
(165,0,l),
(165,737,l),
(287,737,l)
);
}
);
width = 664;
}
);
unicode = 321;
},
{
category = Letter;
glyphname = lslash;
layers = (
{
layerId = "97546b08-5fa5-44df-a2da-6469103e6233";
name = Fore;
shapes = (
{
closed = 1;
nodes = (
(445,494,l),
(116,265,l),
(44,337,l),
(374,565,l)
);
},
{
closed = 1;
nodes = (
(248,138,o),
(257,118.5,q),
(266,99,o),
(282,89.5,q),
(298,80,o),
(318.5,77,q),
(339,74,o),
(362,74,q),
(362,0,l),
(349,-2,o),
(336,-3,q),
(325,-4,o),
(310,-4.5,q),
(295,-5,o),
(280,-5,q),
(265,-5,o),
(249.5,-4,q),
(234,-3,o),
(223,-1,q),
(189,6,o),
(170,29,q),
(151,52,o),
(141,80.5,q),
(131,109,o),
(128.5,136,q),
(126,163,o),
(126,178,q),
(126,190,l),
(126,777,l),
(248,777,l),
(248,172,l)
);
}
);
width = 495;
}
);
unicode = 322;
},
{
category = Letter;
glyphname = circumflex;
layers = (
{
layerId = "97546b08-5fa5-44df-a2da-6469103e6233";
name = Fore;
shapes = (
{
closed = 1;
nodes = (
(177,714,l),
(134,635,l),
(24,635,l),
(132,777,l),
(223,777,l),
(332,635,l),
(221,635,l)
);
}
);
width = 355;
}
);
unicode = 710;
},
{
category = Letter;
glyphname = caron;
layers = (
{
layerId = "97546b08-5fa5-44df-a2da-6469103e6233";
name = Fore;
shapes = (
{
closed = 1;
nodes = (
(176,698,l),
(220,777,l),
(331,777,l),
(222,635,l),
(131,635,l),
(23,777,l),
(133,777,l)
);
}
);
width = 353;
}
);
unicode = 711;
},
{
category = Letter;
glyphname = breve;
layers = (
{
layerId = "97546b08-5fa5-44df-a2da-6469103e6233";
name = Fore;
shapes = (
{
closed = 1;
nodes = (
(221,695,o),
(239.5,714,q),
(258,733,o),
(258,760,q),
(317,760,l),
(317,734,o),
(307.5,711,q),
(298,688,o),
(281,671,q),
(264,654,o),
(241.5,644.5,q),
(219,635,o),
(194,635,q),
(168,635,o),
(145,644.5,q),
(122,654,o),
(105,671,q),
(88,688,o),
(78.5,711,q),
(69,734,o),
(69,760,q),
(129,760,l),
(129,733,o),
(148,714,q),
(167,695,o),
(194,695,q)
);
}
);
width = 386;
}
);
unicode = 728;
},
{
category = Letter;
glyphname = dotaccent;
layers = (
{
layerId = "97546b08-5fa5-44df-a2da-6469103e6233";
name = Fore;
shapes = (
{
closed = 1;
nodes = (
(215,681,o),
(194,660,q),
(173,639,o),
(143,639,q),
(113,639,o),
(92.5,660,q),
(72,681,o),
(72,711,q),
(72,741,o),
(93,761.5,q),
(114,782,o),
(143,782,q),
(173,782,o),
(194,761.5,q),
(215,741,o),
(215,711,q)
);
}
);
width = 285;
}
);
unicode = 729;
},
{
category = Letter;
glyphname = ring;
layers = (
{
layerId = "97546b08-5fa5-44df-a2da-6469103e6233";
name = Fore;
shapes = (
{
closed = 1;
nodes = (
(222,884,o),
(244,874,q),
(266,864,o),
(283,847,q),
(300,830,o),
(309.5,807.5,q),
(319,785,o),
(319,760,q),
(319,734,o),
(309.5,711,q),
(300,688,o),
(283,671,q),
(266,654,o),
(243.5,644.5,q),
(221,635,o),
(196,635,q),
(170,635,o),
(147,644.5,q),
(124,654,o),
(107,671,q),
(90,688,o),
(80.5,711,q),
(71,734,o),
(71,760,q),
(71,786,o),
(80.5,808,q),
(90,830,o),
(107,847,q),
(124,864,o),
(147,874,q),
(170,884,o),
(196,884,q)
);
},
{
closed = 1;
nodes = (
(223,695,o),
(241.5,714,q),
(260,733,o),
(260,760,q),
(260,787,o),
(241,805,q),
(222,823,o),
(196,823,q),
(169,823,o),
(150,804.5,q),
(131,786,o),
(131,760,q),
(131,733,o),
(150,714,q),
(169,695,o),
(196,695,q)
);
}
);
width = 390;
}
);
unicode = 730;
},
{
category = Letter;
glyphname = ogonek;
layers = (
{
layerId = "97546b08-5fa5-44df-a2da-6469103e6233";
name = Fore;
shapes = (
{
closed = 1;
nodes = (
(223,13,o),
(204.5,1.5,q),
(186,-10,o),
(166,-27,q),
(146,-44,o),
(130.5,-65.5,q),
(115,-87,o),
(115,-111,q),
(115,-133,o),
(122,-147,q),
(129,-161,o),
(140,-169.5,q),
(151,-178,o),
(163.5,-182,q),
(176,-186,o),
(187,-186,q),
(187,-224,l),
(155,-224,o),
(130.5,-215,q),
(106,-206,o),
(89.5,-190,q),
(73,-174,o),
(64,-153.5,q),
(55,-133,o),
(55,-110,q),
(55,-79,o),
(76,-52,q),
(97,-25,o),
(124,-4,q),
(154,20,o),
(193,39,q),
(204,35,o),
(214.5,26.5,q),
(225,18,o),
(227,16,q)
);
}
);
width = 289;
}
);
unicode = 731;
},
{
category = Letter;
glyphname = tilde;
layers = (
{
layerId = "97546b08-5fa5-44df-a2da-6469103e6233";
name = Fore;
shapes = (
{
closed = 1;
nodes = (
(37,687,o),
(48,703.5,q),
(59,720,o),
(73.5,733,q),
(88,746,o),
(105.5,754,q),
(123,762,o),
(143,762,q),
(161,762,o),
(179.5,757,q),
(198,752,o),
(213.5,745,q),
(229,738,o),
(244,733,q),
(259,728,o),
(271,728,q),
(288,728,o),
(299,736,q),
(310,744,o),
(318,770,q),
(383,751,l),
(371,707,o),
(341,683.5,q),
(311,660,o),
(271,660,q),
(254,660,o),
(237.5,665.5,q),
(221,671,o),
(205.5,677.5,q),
(190,684,o),
(175,689,q),
(160,694,o),
(143,694,q),
(127,694,o),
(113.5,678.5,q),
(100,663,o),
(91,643,q),
(30,670,l)
);
}
);
width = 406;
}
);
unicode = 732;
},
{
category = Letter;
glyphname = hungarumlaut;
layers = (
{
layerId = "97546b08-5fa5-44df-a2da-6469103e6233";
name = Fore;
shapes = (
{
closed = 1;
nodes = (
(104,635,l),
(24,635,l),
(91,777,l),
(213,777,l)
);
},
{
closed = 1;
nodes = (
(329,635,l),
(248,635,l),
(315,777,l),
(437,777,l)
);
}
);
width = 448;
}
);
unicode = 733;
},
{
category = Letter;
glyphname = endash;
layers = (
{
layerId = "97546b08-5fa5-44df-a2da-6469103e6233";
name = Fore;
shapes = (
{
closed = 1;
nodes = (
(553,242,l),
(86,242,l),
(86,343,l),
(553,343,l)
);
}
);
width = 638;
}
);
unicode = 8211;
},
{
category = Letter;
glyphname = emdash;
layers = (
{
layerId = "97546b08-5fa5-44df-a2da-6469103e6233";
name = Fore;
shapes = (
{
closed = 1;
nodes = (
(831,242,l),
(86,242,l),
(86,343,l),
(831,343,l)
);
}
);
width = 917;
}
);
unicode = 8212;
},
{
category = Letter;
glyphname = quoteleft;
layers = (
{
layerId = "97546b08-5fa5-44df-a2da-6469103e6233";
name = Fore;
shapes = (
{
closed = 1;
nodes = (
(104,483,o),
(83,504,q),
(62,525,o),
(62,555,q),
(62,560,o),
(63.5,578.5,q),
(65,597,o),
(73,623,q),
(81,649,o),
(100.5,680.5,q),
(120,712,o),
(157,742,q),
(204,742,l),
(184,722,o),
(170.5,702,q),
(157,682,o),
(148,665,q),
(138,646,o),
(134,627,q),
(164,627,o),
(185,606,q),
(206,585,o),
(206,555,q),
(206,525,o),
(185,504,q),
(164,483,o),
(134,483,q)
);
}
);
width = 276;
}
);
unicode = 8216;
},
{
category = Letter;
glyphname = quoteright;
layers = (
{
layerId = "97546b08-5fa5-44df-a2da-6469103e6233";
name = Fore;
shapes = (
{
closed = 1;
nodes = (
(172,742,o),
(193,721,q),
(214,700,o),
(214,671,q),
(214,666,o),
(213,647.5,q),
(212,629,o),
(204,603,q),
(196,577,o),
(176.5,545.5,q),
(157,514,o),
(120,483,q),
(73,483,l),
(93,502,o),
(106,523,q),
(119,544,o),
(127,561,q),
(136,580,o),
(142,599,q),
(112,599,o),
(91.5,620,q),
(71,641,o),
(71,671,q),
(71,701,o),
(91.5,721.5,q),
(112,742,o),
(142,742,q)
);
}
);
width = 275;
}
);
unicode = 8217;
},
{
category = Letter;
glyphname = quotedblleft;
layers = (
{
layerId = "97546b08-5fa5-44df-a2da-6469103e6233";
name = Fore;
shapes = (
{
closed = 1;
nodes = (
(314,483,o),
(293,504,q),
(272,525,o),
(272,555,q),
(272,560,o),
(273,578.5,q),
(274,597,o),
(282.5,623,q),
(291,649,o),
(310.5,680.5,q),
(330,712,o),
(367,742,q),
(414,742,l),
(394,722,o),
(380.5,702,q),
(367,682,o),
(358,665,q),
(348,646,o),
(344,627,q),
(374,627,o),
(395,606,q),
(416,585,o),
(416,555,q),
(416,525,o),
(395,504,q),
(374,483,o),
(344,483,q)
);
},
{
closed = 1;
nodes = (
(120,483,o),
(99,504,q),
(78,525,o),
(78,555,q),
(78,560,o),
(79,578.5,q),
(80,597,o),
(88,623,q),
(96,649,o),
(115.5,680.5,q),
(135,712,o),
(172,742,q),
(219,742,l),
(199,722,o),
(185.5,702,q),
(172,682,o),
(164,665,q),
(154,646,o),
(150,627,q),
(180,627,o),
(200.5,606,q),
(221,585,o),
(221,555,q),
(221,525,o),
(200.5,504,q),
(180,483,o),
(150,483,q)
);
}
);
width = 494;
}
);
unicode = 8220;
},
{
category = Letter;
glyphname = quotedblright;
layers = (
{
layerId = "97546b08-5fa5-44df-a2da-6469103e6233";
name = Fore;
shapes = (
{
closed = 1;
nodes = (
(181,742,o),
(201.5,721,q),
(222,700,o),
(222,671,q),
(222,666,o),
(221,647.5,q),
(220,629,o),
(212,603,q),
(204,577,o),
(184.5,545.5,q),
(165,514,o),
(128,483,q),
(81,483,l),
(101,502,o),
(114,523,q),
(127,544,o),
(135,561,q),
(144,580,o),
(151,599,q),
(121,599,o),
(100,620,q),
(79,641,o),
(79,671,q),
(79,701,o),
(100,721.5,q),
(121,742,o),
(151,742,q)
);
},
{
closed = 1;
nodes = (
(375,742,o),
(396,721,q),
(417,700,o),
(417,671,q),
(417,666,o),
(416,647.5,q),
(415,629,o),
(406.5,603,q),
(398,577,o),
(378.5,545.5,q),
(359,514,o),
(323,483,q),
(275,483,l),
(295,502,o),
(308.5,523,q),
(322,544,o),
(330,561,q),
(339,580,o),
(345,599,q),
(315,599,o),
(294,620,q),
(273,641,o),
(273,671,q),
(273,701,o),
(294,721.5,q),
(315,742,o),
(345,742,q)
);
}
);
width = 493;
}
);
unicode = 8221;
},
{
category = Letter;
glyphname = guilsinglleft;
layers = (
{
layerId = "97546b08-5fa5-44df-a2da-6469103e6233";
name = Fore;
shapes = (
{
closed = 1;
nodes = (
(385,31,l),
(246,31,l),
(44,283,l),
(249,534,l),
(386,534,l),
(180,283,l)
);
}
);
width = 457;
}
);
unicode = 8249;
},
{
category = Letter;
glyphname = guilsinglright;
layers = (
{
layerId = "97546b08-5fa5-44df-a2da-6469103e6233";
name = Fore;
shapes = (
{
closed = 1;
nodes = (
(209,534,l),
(414,283,l),
(212,31,l),
(73,31,l),
(278,283,l),
(72,534,l)
);
}
);
width = 457;
}
);
unicode = 8250;
},
{
category = Letter;
glyphname = Euro;
layers = (
{
layerId = "97546b08-5fa5-44df-a2da-6469103e6233";
name = Fore;
shapes = (
{
closed = 1;
nodes = (
(386,650,o),
(339,615,q),
(292,580,o),
(269,496,q),
(525,496,l),
(495,414,l),
(257,414,l),
(256,404,o),
(255.5,393.5,q),
(255,383,o),
(255,372,q),
(255,361,o),
(255.5,351,q),
(256,341,o),
(257,332,q),
(464,332,l),
(433,250,l),
(269,250,l),
(291,167,o),
(336.5,130,q),
(382,93,o),
(437,93,q),
(473,93,o),
(505,106,q),
(537,119,o),
(562,148,q),
(562,18,l),
(506,-6,o),
(440,-5,q),
(386,-5,o),
(338.5,11,q),
(291,27,o),
(252.5,59,q),
(214,91,o),
(186.5,138.5,q),
(159,186,o),
(145,250,q),
(54,250,l),
(85,332,l),
(134,332,l),
(133,342,o),
(133,351.5,q),
(133,361,o),
(133,372,q),
(133,383,o),
(133,393,q),
(133,403,o),
(134,414,q),
(54,414,l),
(85,496,l),
(145,496,l),
(159,558,o),
(187,605.5,q),
(215,653,o),
(253.5,685,q),
(292,717,o),
(339.5,733,q),
(387,749,o),
(440,749,q),
(532,749,o),
(603,702,q),
(562,595,l),
(537,624,o),
(506.5,637,q),
(476,650,o),
(443,650,q)
);
}
);
width = 678;
}
);
unicode = 8364;
},
{
category = Letter;
glyphname = aid;
layers = (
{
layerId = "97546b08-5fa5-44df-a2da-6469103e6233";
name = Fore;
shapes = (
{
closed = 1;
nodes = (
(850,564,o),
(878,559,q),
(906,554,o),
(924,538.5,q),
(942,523,o),
(950.5,495.5,q),
(959,468,o),
(959,422,q),
(959,142,l),
(959,112,o),
(958.5,86,q),
(958,60,o),
(945,41.5,q),
(932,23,o),
(901,11.5,q),
(870,0,o),
(811,0,q),
(263,0,l),
(210,0,o),
(183,12.5,q),
(156,25,o),
(145,45,q),
(134,65,o),
(133.5,90.5,q),
(133,116,o),
(133,142,q),
(133,422,l),
(133,452,o),
(133.5,478,q),
(134,504,o),
(147,523,q),
(160,542,o),
(190.5,553,q),
(221,564,o),
(282,564,q),
(344,564,l),
(344,706,l),
(749,706,l),
(749,564,l),
(811,564,l)
);
},
{
closed = 1;
nodes = (
(607,312,l),
(607,392,l),
(485,392,l),
(485,312,l),
(406,312,l),
(406,190,l),
(485,190,l),
(485,111,l),
(607,111,l),
(607,190,l),
(687,190,l),
(687,312,l)
);
},
{
closed = 1;
nodes = (
(406,644,l),
(406,503,l),
(687,503,l),
(687,644,l)
);
}
);
width = 1090;
}
);
},
{
category = Letter;
glyphname = food;
layers = (
{
layerId = "97546b08-5fa5-44df-a2da-6469103e6233";
name = Fore;
shapes = (
{
closed = 1;
nodes = (
(409,500,o),
(390.5,490.5,q),
(372,481,o),
(357,478,q),
(340,474,o),
(325,475,q),
(324,490,o),
(328,508,q),
(331,522,o),
(340,540,q),
(349,558,o),
(368,577,q),
(386,595,o),
(404.5,603.5,q),
(423,612,o),
(437,616,q),
(454,620,o),
(470,620,q),
(471,605,o),
(467,587,q),
(463,573,o),
(453.5,554.5,q),
(444,536,o),
(427,518,q)
);
},
{
closed = 1;
nodes = (
(409,377,o),
(390.5,367.5,q),
(372,358,o),
(357,355,q),
(340,351,o),
(325,352,q),
(324,366,o),
(328,384,q),
(331,398,o),
(340,416.5,q),
(349,435,o),
(368,454,q),
(386,472,o),
(404.5,480.5,q),
(423,489,o),
(437,494,q),
(454,498,o),
(470,497,q),
(471,482,o),
(467,464,q),
(463,450,o),
(453.5,431.5,q),
(444,413,o),
(427,395,q)
);
},
{
closed = 1;
nodes = (
(409,254,o),
(390.5,245,q),
(372,236,o),
(357,232,q),
(340,228,o),
(325,229,q),
(324,243,o),
(328,261,q),
(331,275,o),
(340,293.5,q),
(349,312,o),
(368,331,q),
(386,349,o),
(404.5,358,q),
(423,367,o),
(437,371,q),
(454,375,o),
(470,374,q),
(471,359,o),
(467,341,q),
(463,327,o),
(453.5,308.5,q),
(444,290,o),
(427,272,q)
);
},
{
closed = 1;
nodes = (
(409,623,o),
(390.5,613.5,q),
(372,604,o),
(357,601,q),
(340,597,o),
(325,598,q),
(324,613,o),
(328,631,q),
(331,645,o),
(340,663.5,q),
(349,682,o),
(368,700,q),
(386,717,o),
(404.5,726.5,q),
(423,736,o),
(437,739,q),
(454,743,o),
(470,742,q),
(471,727,o),
(467,710,q),
(463,696,o),
(453.5,677.5,q),
(444,659,o),
(427,641,q)
);
},
{
closed = 1;
nodes = (
(105,573,o),
(101,587,q),
(97,605,o),
(98,620,q),
(114,620,o),
(131,616,q),
(145,612,o),
(164,603.5,q),
(183,595,o),
(201,577,q),
(219,558,o),
(228,540,q),
(237,522,o),
(241,508,q),
(245,490,o),
(244,475,q),
(228,474,o),
(211,478,q),
(197,481,o),
(178,490.5,q),
(159,500,o),
(141,518,q),
(123,536,o),
(114,554.5,q)
);
},
{
closed = 1;
nodes = (
(105,450,o),
(101,464,q),
(97,482,o),
(98,497,q),
(114,498,o),
(131,494,q),
(145,489,o),
(164,480.5,q),
(183,472,o),
(201,454,q),
(219,435,o),
(228,416.5,q),
(237,398,o),
(241,384,q),
(245,366,o),
(244,352,q),
(228,351,o),
(211,355,q),
(197,358,o),
(178,367.5,q),
(159,377,o),
(141,395,q),
(123,413,o),
(114,431.5,q)
);
},
{
closed = 1;
nodes = (
(105,327,o),
(101,341,q),
(97,359,o),
(98,374,q),
(114,375,o),
(131,371,q),
(145,367,o),
(164,358,q),
(183,349,o),
(201,331,q),
(219,312,o),
(228,293.5,q),
(237,275,o),
(241,261,q),
(245,243,o),
(244,229,q),
(228,228,o),
(211,232,q),
(197,236,o),
(178,245,q),
(159,254,o),
(141,272,q),
(123,290,o),
(114,308.5,q)
);
},
{
closed = 1;
nodes = (
(105,696,o),
(101,710,q),
(97,727,o),
(98,742,q),
(114,743,o),
(131,739,q),
(145,736,o),
(164,726.5,q),
(183,717,o),
(201,700,q),
(219,682,o),
(228,663.5,q),
(237,645,o),
(241,631,q),
(245,613,o),
(244,598,q),
(228,597,o),
(211,601,q),
(197,604,o),
(178,613.5,q),
(159,623,o),
(141,641,q),
(123,659,o),
(114,677.5,q)
);
},
{
closed = 1;
nodes = (
(264,0,l),
(264,707,l),
(304,707,l),
(304,0,l)
);
}
);
width = 568;
}
);
},
{
category = Letter;
glyphname = up;
layers = (
{
layerId = "97546b08-5fa5-44df-a2da-6469103e6233";
name = Fore;
shapes = (
{
closed = 1;
nodes = (
(471,480,l),
(471,0,l),
(349,0,l),
(349,480,l),
(83,214,l),
(83,416,l),
(411,742,l),
(737,416,l),
(737,214,l)
);
}
);
width = 820;
}
);
},
{
category = Letter;
glyphname = water;
layers = (
{
layerId = "97546b08-5fa5-44df-a2da-6469103e6233";
name = Fore;
shapes = (
{
closed = 1;
nodes = (
(408,693,o),
(454.5,633,q),
(501,573,o),
(536,510,q),
(571,447,o),
(592.5,383,q),
(614,319,o),
(614,261,q),
(614,203,o),
(596.5,153,q),
(579,103,o),
(545.5,67,q),
(512,31,o),
(465,10.5,q),
(418,-10,o),
(359,-10,q),
(301,-10,o),
(253.5,10.5,q),
(206,31,o),
(172,67,q),
(138,103,o),
(120,153,q),
(102,203,o),
(102,261,q),
(102,319,o),
(123.5,383,q),
(145,447,o),
(181,510,q),
(217,573,o),
(263,633,q),
(309,693,o),
(359,742,q)
);
},
{
closed = 1;
nodes = (
(494,143,o),
(503.5,150.5,q),
(513,158,o),
(519,168.5,q),
(525,179,o),
(528,191,q),
(531,203,o),
(531,213,q),
(531,231,o),
(526.5,250.5,q),
(522,270,o),
(515.5,288.5,q),
(509,307,o),
(501.5,323.5,q),
(494,340,o),
(486,352,q),
(486,328,o),
(478.5,304.5,q),
(471,281,o),
(464,267,q),
(460,257,o),
(455,250,q),
(450,243,o),
(445.5,235,q),
(441,227,o),
(438,218,q),
(435,209,o),
(435,197,q),
(435,172,o),
(451,157.5,q),
(467,143,o),
(482,143,q)
);
}
);
width = 716;
}
);
},
{
category = Letter;
glyphname = shelter;
layers = (
{
layerId = "97546b08-5fa5-44df-a2da-6469103e6233";
name = Fore;
shapes = (
{
closed = 1;
nodes = (
(369,221,l),
(490,221,l),
(490,0,l),
(369,0,l)
);
},
{
closed = 1;
nodes = (
(757,403,l),
(757,253,l),
(695,314,l),
(695,0,l),
(604,0,l),
(604,406,l),
(430,581,l),
(255,406,l),
(255,0,l),
(164,0,l),
(164,314,l),
(102,253,l),
(102,403,l),
(430,730,l)
);
}
);
width = 859;
}
);
},
{
category = Letter;
glyphname = transport;
layers = (
{
layerId = "97546b08-5fa5-44df-a2da-6469103e6233";
name = Fore;
shapes = (
{
closed = 1;
nodes = (
(741,264,l),
(741,104,l),
(690,104,l),
(690,40,l),
(690,35,o),
(689.5,27.5,q),
(689,20,o),
(684.5,13.5,q),
(680,7,o),
(670,2.5,q),
(660,-2,o),
(643,-2,q),
(616,-2,l),
(601,-2,o),
(592.5,3,q),
(584,8,o),
(579.5,16,q),
(575,24,o),
(574.5,33,q),
(574,42,o),
(574,50,q),
(574,104,l),
(307,104,l),
(307,40,l),
(307,35,o),
(306.5,27.5,q),
(306,20,o),
(301.5,13.5,q),
(297,7,o),
(288,2.5,q),
(279,-2,o),
(260,-2,q),
(234,-2,l),
(219,-2,o),
(210.5,3,q),
(202,8,o),
(198,16,q),
(194,24,o),
(192.5,33,q),
(191,42,o),
(191,50,q),
(191,104,l),
(140,104,l),
(140,588,l),
(140,617,o),
(140.5,643,q),
(141,669,o),
(154.5,688.5,q),
(168,708,o),
(198,719,q),
(228,730,o),
(289,730,q),
(611,730,l),
(664,730,o),
(691,718,q),
(718,706,o),
(729,686,q),
(740,666,o),
(740.5,640,q),
(741,614,o),
(741,588,q),
(741,308,l)
);
},
{
closed = 1;
nodes = (
(288,648,o),
(265,639.5,q),
(242,631,o),
(231,616.5,q),
(220,602,o),
(218.5,583.5,q),
(217,565,o),
(217,546,q),
(217,540,o),
(217,502.5,q),
(217,465,o),
(216,390,q),
(666,390,l),
(666,548,l),
(666,566,o),
(664.5,584,q),
(663,602,o),
(653.5,616.5,q),
(644,631,o),
(623.5,639.5,q),
(603,648,o),
(566,648,q),
(331,648,l)
);
},
{
closed = 1;
nodes = (
(274,186,o),
(290.5,203.5,q),
(307,221,o),
(307,245,q),
(307,269,o),
(290,285.5,q),
(273,302,o),
(250,302,q),
(226,302,o),
(208.5,285,q),
(191,268,o),
(191,245,q),
(191,221,o),
(208.5,203.5,q),
(226,186,o),
(250,186,q)
);
},
{
closed = 1;
nodes = (
(657,186,o),
(673.5,203.5,q),
(690,221,o),
(690,245,q),
(690,269,o),
(673,285.5,q),
(656,302,o),
(633,302,q),
(608,302,o),
(591,285,q),
(574,268,o),
(574,245,q),
(574,221,o),
(591,203.5,q),
(608,186,o),
(633,186,q)
);
}
);
width = 881;
}
);
},
{
category = Letter;
glyphname = woman;
layers = (
{
layerId = "97546b08-5fa5-44df-a2da-6469103e6233";
name = Fore;
shapes = (
{
closed = 1;
nodes = (
(206,642,o),
(185,663,q),
(164,684,o),
(164,714,q),
(164,744,o),
(185,764.5,q),
(206,785,o),
(236,785,q),
(266,785,o),
(286.5,764,q),
(307,743,o),
(307,714,q),
(307,684,o),
(286.5,663,q),
(266,642,o),
(236,642,q)
);
},
{
closed = 1;
nodes = (
(373,334,l),
(323,334,l),
(323,535,l),
(309,535,l),
(286,433,l),
(286,398,l),
(342,184,l),
(282,184,l),
(273,0,l),
(197,0,l),
(188,184,l),
(128,184,l),
(184,398,l),
(184,434,l),
(161,535,l),
(147,535,l),
(147,334,l),
(96,334,l),
(96,535,l),
(96,548,o),
(97,558.5,q),
(98,569,o),
(104.5,577.5,q),
(111,586,o),
(124.5,590.5,q),
(138,595,o),
(165,595,q),
(313,595,l),
(333,595,o),
(345,591,q),
(357,587,o),
(363.5,579.5,q),
(370,572,o),
(371.5,563.5,q),
(373,555,o),
(373,545,q),
(373,529,l),
(373,550,l)
);
}
);
width = 467;
}
);
},
{
category = Letter;
glyphname = man;
layers = (
{
layerId = "97546b08-5fa5-44df-a2da-6469103e6233";
name = Fore;
shapes = (
{
closed = 1;
nodes = (
(371,313,l),
(312,313,l),
(312,535,l),
(293,535,l),
(293,0,l),
(171,0,l),
(171,535,l),
(152,535,l),
(152,313,l),
(94,313,l),
(94,535,l),
(94,548,l),
(94,550,l),
(94,560,o),
(96.5,568.5,q),
(99,577,o),
(106.5,583,q),
(114,589,o),
(127,592,q),
(140,595,o),
(163,595,q),
(310,595,l),
(335,595,o),
(347,589.5,q),
(359,584,o),
(365,574.5,q),
(371,565,o),
(371,553.5,q),
(371,542,o),
(371,529,q),
(371,550,l)
);
},
{
closed = 1;
nodes = (
(371,380,l),
(371,400,l)
);
},
{
closed = 1;
nodes = (
(202,642,o),
(181.5,663,q),
(161,684,o),
(161,714,q),
(161,744,o),
(182,764.5,q),
(203,785,o),
(232,785,q),
(262,785,o),
(283,764,q),
(304,743,o),
(304,714,q),
(304,684,o),
(283,663,q),
(262,642,o),
(232,642,q)
);
}
);
width = 465;
}
);
},
{
category = Letter;
glyphname = downright;
layers = (
{
layerId = "97546b08-5fa5-44df-a2da-6469103e6233";
name = Fore;
shapes = (
{
closed = 1;
nodes = (
(697,0,l),
(234,0,l),
(92,141,l),
(469,141,l),
(129,481,l),
(215,567,l),
(555,227,l),
(555,604,l),
(697,462,l)
);
}
);
width = 827;
}
);
},
{
category = Letter;
glyphname = fruit;
layers = (
{
layerId = "97546b08-5fa5-44df-a2da-6469103e6233";
name = Fore;
shapes = (
{
closed = 1;
nodes = (
(401,523,o),
(444,504,q),
(487,485,o),
(517,450.5,q),
(547,416,o),
(562.5,367.5,q),
(578,319,o),
(578,261,q),
(578,212,o),
(561.5,164.5,q),
(545,117,o),
(515,79,q),
(485,41,o),
(442.5,18,q),
(400,-5,o),
(347,-5,q),
(294,-5,o),
(251,18,q),
(208,41,o),
(178,79,q),
(148,117,o),
(132,164.5,q),
(116,212,o),
(116,261,q),
(116,319,o),
(131,367.5,q),
(146,416,o),
(176,450.5,q),
(206,485,o),
(249,504,q),
(292,523,o),
(347,523,q)
);
},
{
closed = 1;
nodes = (
(436,579,o),
(417,569.5,q),
(398,560,o),
(384,557,q),
(367,553,o),
(352,554,q),
(351,569,o),
(355,587,q),
(358,601,o),
(367,619,q),
(376,637,o),
(394,655,q),
(412,673,o),
(431,682,q),
(450,691,o),
(464,695,q),
(481,699,o),
(497,698,q),
(498,683,o),
(494,666,q),
(490,652,o),
(481,633.5,q),
(472,615,o),
(454,597,q)
);
},
{
closed = 1;
nodes = (
(310,553,o),
(288,558,q),
(269,563,o),
(244,575,q),
(219,587,o),
(196,611,q),
(171,636,o),
(159,660,q),
(147,684,o),
(142,703,q),
(137,726,o),
(138,748,q),
(158,748,o),
(181,742,q),
(200,737,o),
(225,725.5,q),
(250,714,o),
(274,689,q),
(299,664,o),
(311,640,q),
(323,616,o),
(328,597,q),
(333,574,o),
(332,554,q)
);
}
);
width = 675;
}
);
},
{
category = Letter;
glyphname = downleft;
layers = (
{
layerId = "97546b08-5fa5-44df-a2da-6469103e6233";
name = Fore;
shapes = (
{
closed = 1;
nodes = (
(273,227,l),
(613,567,l),
(699,481,l),
(359,141,l),
(736,141,l),
(594,0,l),
(131,0,l),
(131,462,l),
(273,604,l)
);
}
);
width = 828;
}
);
},
{
category = Letter;
glyphname = right;
layers = (
{
layerId = "97546b08-5fa5-44df-a2da-6469103e6233";
name = Fore;
shapes = (
{
closed = 1;
nodes = (
(812,367,l),
(485,39,l),
(284,39,l),
(550,305,l),
(70,305,l),
(70,427,l),
(550,427,l),
(284,693,l),
(485,693,l)
);
}
);
width = 897;
}
);
},
{
category = Letter;
glyphname = left;
layers = (
{
layerId = "97546b08-5fa5-44df-a2da-6469103e6233";
name = Fore;
shapes = (
{
closed = 1;
nodes = (
(347,427,l),
(827,427,l),
(827,305,l),
(347,305,l),
(613,39,l),
(412,39,l),
(85,367,l),
(412,693,l),
(613,693,l)
);
}
);
width = 898;
}
);
},
{
category = Letter;
glyphname = down;
layers = (
{
layerId = "97546b08-5fa5-44df-a2da-6469103e6233";
name = Fore;
shapes = (
{
closed = 1;
nodes = (
(411,-5,l),
(83,322,l),
(83,523,l),
(349,257,l),
(349,737,l),
(471,737,l),
(471,257,l),
(737,523,l),
(737,322,l)
);
}
);
width = 820;
}
);
},
{
category = Letter;
glyphname = upleft;
layers = (
{
layerId = "97546b08-5fa5-44df-a2da-6469103e6233";
name = Fore;
shapes = (
{
closed = 1;
nodes = (
(131,604,l),
(594,604,l),
(736,463,l),
(359,463,l),
(699,123,l),
(613,37,l),
(273,377,l),
(273,0,l),
(131,142,l)
);
}
);
width = 827;
}
);
},
{
category = Letter;
glyphname = upright;
layers = (
{
layerId = "97546b08-5fa5-44df-a2da-6469103e6233";
name = Fore;
shapes = (
{
closed = 1;
nodes = (
(554,377,l),
(214,37,l),
(128,123,l),
(468,463,l),
(91,463,l),
(233,604,l),
(696,604,l),
(696,142,l),
(554,0,l)
);
}
);
width = 826;
}
);
},
